<svg xmlns="http://www.w3.org/2000/svg" width="500" height="378.969" viewBox="0 0 500 378.969">
  <g id="Background_Complete" data-name="Background Complete" transform="translate(0 -22.059)">
    <g id="Group_1" data-name="Group 1">
      <rect id="Rectangle_1" data-name="Rectangle 1" width="500" height="0.25" transform="translate(0 382.398)" fill="#ebebeb"/>
      <rect id="Rectangle_2" data-name="Rectangle 2" width="33.122" height="0.25" transform="translate(416.779 398.494)" fill="#ebebeb"/>
      <rect id="Rectangle_3" data-name="Rectangle 3" width="12.887" height="0.25" transform="translate(260.335 395.361)" fill="#ebebeb"/>
      <rect id="Rectangle_4" data-name="Rectangle 4" width="27.14" height="0.25" transform="translate(322.527 396.417)" fill="#ebebeb"/>
      <rect id="Rectangle_5" data-name="Rectangle 5" width="56.111" height="0.25" transform="translate(359.667 389.208)" fill="#ebebeb"/>
      <rect id="Rectangle_6" data-name="Rectangle 6" width="26.527" height="0.25" transform="translate(52.459 400.778)" fill="#ebebeb"/>
      <rect id="Rectangle_7" data-name="Rectangle 7" width="23" height="0.25" transform="translate(87.889 400.778)" fill="#ebebeb"/>
      <rect id="Rectangle_8" data-name="Rectangle 8" width="60.814" height="0.25" transform="translate(131 395.236)" fill="#ebebeb"/>
      <path id="Path_1" data-name="Path 1" d="M237.014,337.8H43.915a5.715,5.715,0,0,1-5.708-5.708V60.66a5.714,5.714,0,0,1,5.708-5.707h193.1a5.714,5.714,0,0,1,5.707,5.707V332.092A5.715,5.715,0,0,1,237.014,337.8ZM43.915,55.2a5.463,5.463,0,0,0-5.458,5.457V332.092a5.464,5.464,0,0,0,5.458,5.458h193.1a5.463,5.463,0,0,0,5.457-5.458V60.66a5.463,5.463,0,0,0-5.457-5.457Z" fill="#ebebeb"/>
      <path id="Path_2" data-name="Path 2" d="M453.31,337.8h-193.1a5.714,5.714,0,0,1-5.707-5.708V60.66a5.713,5.713,0,0,1,5.707-5.707h193.1a5.714,5.714,0,0,1,5.709,5.707V332.092A5.715,5.715,0,0,1,453.31,337.8ZM260.212,55.2a5.463,5.463,0,0,0-5.457,5.457V332.092a5.463,5.463,0,0,0,5.457,5.458h193.1a5.464,5.464,0,0,0,5.459-5.458V60.66A5.464,5.464,0,0,0,453.31,55.2Z" fill="#ebebeb"/>
    </g>
    <g id="Group_11" data-name="Group 11">
      <g id="Group_6" data-name="Group 6">
        <g id="Group_2" data-name="Group 2">
          <path id="Path_3" data-name="Path 3" d="M467.064,194.172a53.852,53.852,0,0,0-.992-33.044,46.489,46.489,0,0,0-20.978-69.849A80.241,80.241,0,0,0,318.172,37.608a41.041,41.041,0,0,0-70.691,27.931,61.906,61.906,0,0,0-35.121,100.65A46.585,46.585,0,0,0,264.3,234.006a71.932,71.932,0,0,0,96.825,18.46c7.521,17.494,13.7,43.732.4,69.462,48.344-4.742,83.256-51.113,76.141-93.6A53.976,53.976,0,0,0,467.064,194.172Z" fill="#def1f7"/>
          <path id="Path_4" data-name="Path 4" d="M374.317,312.332a1,1,0,0,1-.961-1.276c6.811-23.717.6-46.456-5.8-61.356l-3.246-7.547-6.937,4.4A64.93,64.93,0,0,1,269.966,229.9l-2.773-3.822-4.582,1.14a39.582,39.582,0,0,1-44.126-57.635l2.334-4.218-3.107-3.684A54.905,54.905,0,0,1,248.864,72.4l5.553-1.118.064-5.665A34.038,34.038,0,0,1,313.11,42.444l4.241,4.438,4.954-3.623A73.24,73.24,0,0,1,438.162,92.248l.565,4.041,3.8,1.5a39.488,39.488,0,0,1,17.812,59.328l-2.064,2.954,1.205,3.4a47.061,47.061,0,0,1-24.739,58.5l-4.862,2.237.885,5.278c3.036,18.129-2.425,37.931-14.984,54.33A81.031,81.031,0,0,1,374.6,312.292,1,1,0,0,1,374.317,312.332Zm-9.551-72.651a.965.965,0,0,1,.3.045,1,1,0,0,1,.623.56l3.709,8.625c6.376,14.83,12.552,37.293,6.369,60.934A79.179,79.179,0,0,0,414.188,282.6c12.222-15.96,17.543-35.2,14.6-52.784l-1.01-6.032a1,1,0,0,1,.568-1.073l5.556-2.557a45.059,45.059,0,0,0,23.69-56.017l-1.377-3.882a1,1,0,0,1,.123-.906l2.358-3.376a37.491,37.491,0,0,0-16.907-56.325l-4.338-1.714a1,1,0,0,1-.622-.791l-.645-4.619a71.217,71.217,0,0,0-112.7-47.653l-5.662,4.142a1,1,0,0,1-1.314-.117l-4.846-5.072a32.041,32.041,0,0,0-55.183,21.817l-.073,6.473a1,1,0,0,1-.8.969l-6.346,1.278a52.9,52.9,0,0,0-30.018,86.025l3.551,4.211a1,1,0,0,1,.111,1.129l-2.668,4.82a37.843,37.843,0,0,0-3.251,7.815,37.587,37.587,0,0,0,45.145,46.909l5.237-1.3a.993.993,0,0,1,1.051.384l3.168,4.368a62.352,62.352,0,0,0,33.493,23.511,62.74,62.74,0,0,0,51.224-7.367l7.928-5.03A1,1,0,0,1,364.766,239.681Z" fill="#fff"/>
        </g>
        <g id="Group_3" data-name="Group 3">
          <path id="Path_5" data-name="Path 5" d="M304.191,146.189l-26.805-4.173.418-2.68a33.5,33.5,0,0,1,3.281-10.868,24.927,24.927,0,0,1,5.833-7.076q3.618-3.048,15.723-10.266,6.439-3.768,7.042-7.645a7.966,7.966,0,0,0-1.353-6.388q-1.957-2.51-6.613-3.234a11.31,11.31,0,0,0-8.8,2.024q-3.8,2.806-6,10.916l-26.841-7.647q3.76-14.875,14.752-22.592t30.741-4.642Q320.943,74.312,329.4,82.2q11.487,10.674,9.236,25.134a22.59,22.59,0,0,1-5.117,11.053q-4.184,5.057-15.662,11.5-8,4.536-10.4,7.664A18.781,18.781,0,0,0,304.191,146.189ZM275.36,149l28.708,4.47-3.942,25.322-28.708-4.47Z" fill="#fff"/>
        </g>
        <g id="Group_4" data-name="Group 4">
          <path id="Path_6" data-name="Path 6" d="M372.593,185.424,357.711,173.37l1.2-1.488a23.654,23.654,0,0,1,5.858-5.47,17.578,17.578,0,0,1,6.071-2.25,101.484,101.484,0,0,1,13.239-.69q5.266-.017,7.009-2.169a5.621,5.621,0,0,0,1.44-4.379,7.027,7.027,0,0,0-2.889-4.32,7.987,7.987,0,0,0-6.092-1.887q-3.314.366-7.533,4.536l-13.672-14.188q7.571-7.748,17.017-8.558t20.412,8.069q8.537,6.915,10.9,14.73,3.227,10.59-3.277,18.618a15.95,15.95,0,0,1-7.044,4.932q-4.347,1.6-13.641,1.467-6.494-.07-9.069.988A13.252,13.252,0,0,0,372.593,185.424ZM354,176.913l15.938,12.911-11.388,14.059L342.61,190.972Z" fill="#fff"/>
        </g>
        <g id="Group_5" data-name="Group 5">
          <path id="Path_7" data-name="Path 7" d="M376.753,98.8l-6.441-8.795.879-.644a13.5,13.5,0,0,1,4.018-2.161,10.021,10.021,0,0,1,3.668-.357,57.7,57.7,0,0,1,7.387,1.542q2.9.756,4.174-.176a3.206,3.206,0,0,0,1.428-2.2,4,4,0,0,0-.964-2.8,4.547,4.547,0,0,0-3.079-1.923q-1.877-.279-4.8,1.4L377.553,72.9a15.16,15.16,0,0,1,10.609-2.24q5.318.924,10.063,7.4,3.7,5.044,3.86,9.689a10.854,10.854,0,0,1-4.506,9.772,9.07,9.07,0,0,1-4.593,1.692,23.181,23.181,0,0,1-7.721-1.172,14.745,14.745,0,0,0-5.135-.773A7.551,7.551,0,0,0,376.753,98.8Zm-9-7.384,6.9,9.42-8.309,6.085-6.9-9.42Z" fill="#fff"/>
        </g>
      </g>
      <g id="Group_10" data-name="Group 10">
        <g id="Group_7" data-name="Group 7">
          <path id="Path_8" data-name="Path 8" d="M128.335,223.574a46.908,46.908,0,0,1-23.959-6.658c-10.147-6.047-17.318-15.42-19.754-25.785a29.067,29.067,0,0,1-26.967-27.456A25.107,25.107,0,0,1,54.2,124.984,42.761,42.761,0,0,1,105.86,73.622a22.253,22.253,0,0,1,40.7-.1,33.168,33.168,0,0,1,37.018,42.705,25.156,25.156,0,0,1-12.363,43.986,38.047,38.047,0,0,1-13.536,20.4,38.477,38.477,0,0,1-29.788,7.578c-.106,9.715,2.152,22.885,13.025,32.3a.785.785,0,0,1-.3,1.347A44.2,44.2,0,0,1,128.335,223.574ZM95.727,73.981a41.216,41.216,0,0,0-39.9,51.07.79.79,0,0,1-.223.759,23.535,23.535,0,0,0,3.247,36.777.786.786,0,0,1,.353.626A27.5,27.5,0,0,0,85.3,189.6a.782.782,0,0,1,.726.616c2.209,10.173,9.191,19.413,19.155,25.351a44.625,44.625,0,0,0,33.629,5.143c-10.731-10.037-12.725-23.659-12.468-33.466a.79.79,0,0,1,.291-.59.8.8,0,0,1,.639-.161,36.91,36.91,0,0,0,29.447-7.113,36.509,36.509,0,0,0,13.11-20.056.783.783,0,0,1,.654-.585A23.583,23.583,0,0,0,182.172,117.1a.786.786,0,0,1-.248-.855,31.6,31.6,0,0,0-35.7-41.07.785.785,0,0,1-.867-.473,20.684,20.684,0,0,0-38.309.134.787.787,0,0,1-.923.467A41.726,41.726,0,0,0,95.727,73.981Z" fill="#d6f6ff"/>
        </g>
        <g id="Group_8" data-name="Group 8">
          <path id="Path_9" data-name="Path 9" d="M100.6,139.957l-13.814,3.252-.325-1.381a17.545,17.545,0,0,1-.548-5.914,13.031,13.031,0,0,1,1.435-4.577,75.29,75.29,0,0,1,5.6-8.071q2.379-3.093,1.908-5.091a4.164,4.164,0,0,0-1.912-2.83,5.206,5.206,0,0,0-3.842-.266,5.912,5.912,0,0,0-3.869,2.714q-1.288,2.106-.759,6.471L69.955,125.84a19.725,19.725,0,0,1,2.7-13.854q3.809-5.9,13.987-8.3,7.924-1.864,13.574.3,7.668,2.913,9.423,10.365a11.82,11.82,0,0,1-.305,6.364q-1.033,3.274-5.328,8.659-2.987,3.772-3.535,5.762A9.83,9.83,0,0,0,100.6,139.957Zm-13.422,7.035,14.8-3.483,3.072,13.05-14.794,3.483Z" fill="#ebebeb"/>
        </g>
        <g id="Group_9" data-name="Group 9">
          <path id="Path_10" data-name="Path 10" d="M135.753,110.788l-9.585-2.915.291-.958a12.388,12.388,0,0,1,1.763-3.8,9.221,9.221,0,0,1,2.5-2.285A53.273,53.273,0,0,1,137,97.886q2.55-1.044,2.971-2.431a2.94,2.94,0,0,0-.164-2.406,3.676,3.676,0,0,0-2.25-1.525,4.179,4.179,0,0,0-3.325.284,7.268,7.268,0,0,0-2.759,3.681L122.058,91.3a13.921,13.921,0,0,1,6.564-7.5q4.419-2.253,11.482-.106a16.233,16.233,0,0,1,8.181,5,9.975,9.975,0,0,1,2.075,9.669,8.346,8.346,0,0,1-2.443,3.777,21.312,21.312,0,0,1-6.324,3.4,13.579,13.579,0,0,0-4.2,2.263A6.932,6.932,0,0,0,135.753,110.788Zm-10.688-.466,10.267,3.121-2.754,9.056-10.266-3.122Z" fill="#ebebeb"/>
        </g>
      </g>
    </g>
  </g>
</svg>
