<svg xmlns="http://www.w3.org/2000/svg" width="15.852" height="19.937" viewBox="0 0 15.852 19.937">
  <g id="_6eebba19df90b99745033c579b20deef" data-name="6eebba19df90b99745033c579b20deef" transform="translate(-110.4 -10)">
    <g id="Group_21673" data-name="Group 21673" transform="translate(110.4 10)">
      <path id="Path_30158" data-name="Path 30158" d="M121.1,10H110.4V29.937h15.852V15.151Zm2.5,4.7h-2.04V12.655ZM111.954,28.383V11.554H120v3.918a.777.777,0,0,0,.777.777H124.7V28.379H111.954Z" transform="translate(-110.4 -10)"/>
      <rect id="Rectangle_7257" data-name="Rectangle 7257" width="8.917" height="1.038" transform="translate(3.467 15.449)"/>
      <rect id="Rectangle_7258" data-name="Rectangle 7258" width="5.293" height="1.038" transform="translate(3.467 5.713)"/>
      <path id="Path_30159" data-name="Path 30159" d="M280.22,403.137h.576l-2.222,2.219-1.735-1.735L273,407.461l.732.732,3.107-3.1,1.735,1.735,2.954-2.954v.574h1.038V402.1H280.22Z" transform="translate(-269.692 -394.123)"/>
      <rect id="Rectangle_7259" data-name="Rectangle 7259" width="5.293" height="1.038" transform="translate(3.467 3.45)"/>
    </g>
  </g>
</svg>
