<svg xmlns="http://www.w3.org/2000/svg" width="545.075" height="350.983" viewBox="0 0 545.075 350.983">
  <g id="Group_21189" data-name="Group 21189" transform="translate(34.14 0)">
    <g id="Group_21121" data-name="Group 21121" transform="translate(271.69 45.345)">
      <g id="Group_21118" data-name="Group 21118" transform="translate(20.526 5.861)">
        <path id="Path_29898" data-name="Path 29898" d="M764.744,565.173a1.481,1.481,0,0,0,.62-2.827l-52.946-24.379a1.481,1.481,0,0,0-1.239,2.691l52.946,24.379A1.479,1.479,0,0,0,764.744,565.173Z" transform="translate(-710.317 -537.831)" fill="#0b0754"/>
      </g>
      <g id="Group_21119" data-name="Group 21119" transform="translate(63.401 14.244)">
        <path id="Path_29899" data-name="Path 29899" d="M710.943,682.642a1.482,1.482,0,0,0,1.471-1.669L698.2,569.594a1.481,1.481,0,0,0-2.938.375l14.219,111.379A1.481,1.481,0,0,0,710.943,682.642Z" transform="translate(-695.245 -568.3)" fill="#0b0754"/>
      </g>
      <g id="Group_21120" data-name="Group 21120" transform="translate(0)">
        <path id="Path_29900" data-name="Path 29900" d="M871.958,531.956c4.758-11.3,14.858-17.837,22.558-14.6s10.086,15.032,5.328,26.335a31.333,31.333,0,0,1-4.383,7.421l-25.748-10.839A31.317,31.317,0,0,1,871.958,531.956Z" transform="translate(-869.714 -516.53)" fill="#bed1f9"/>
      </g>
      <path id="Path_29901" data-name="Path 29901" d="M725.13,601.191a5.825,5.825,0,1,0,5.825-5.825A5.825,5.825,0,0,0,725.13,601.191Z" transform="translate(-664.421 -573.676)" fill="#0b0754"/>
    </g>
    <path id="Path_29902" data-name="Path 29902" d="M1342.628,857.885a178.7,178.7,0,0,0,20.4-4.158s1.739-19.61,1.81-20.338c.625-10.07,1.876-16.784-4.641-23.959-3.094-3.407-17.475-1.316-19.878,10.808-2.227,11.238.122,27.176,1.648,37.148l.088.572Z" transform="translate(-1190.323 -682.434)" fill="#b75742"/>
    <g id="Group_21126" data-name="Group 21126" transform="translate(-34.141 156.533)">
      <g id="Group_21122" data-name="Group 21122" transform="translate(35.108 0)">
        <path id="Path_29903" data-name="Path 29903" d="M263.264,1067.605s-50.451-36.208-57.557-51.906,6.919-14.194,6.919-14.194-20.564-27.915-15.448-37.382,13.88-4.858,13.88-4.858-7.534-31.006.485-33.3c14.937-4.274,28.1,36.71,28.1,36.71s1.578-16.33,7.994-14.982c14.287,3,7.5,40.2,7.5,40.2s3.984-13.958,11.885-7.9C281.188,990.865,263.264,1067.605,263.264,1067.605Z" transform="translate(-196.36 -925.652)" fill="#2f8bcc"/>
      </g>
      <path id="Path_29904" data-name="Path 29904" d="M308.537,977.951c-7.49-5.2-12.59,2.765-12.59,2.765s5.9-29.705-8.313-33.024c-7.468-1.744-7.994,14.982-7.994,14.982s-13.16-40.984-28.1-36.71l51.884,141.048C305.439,1058.1,320.49,986.243,308.537,977.951Z" transform="translate(-201.252 -925.652)" fill="#71c4ff"/>
      <g id="Group_21124" data-name="Group 21124" transform="translate(0 89.312)">
        <g id="Group_21123" data-name="Group 21123">
          <path id="Path_29905" data-name="Path 29905" d="M156.922,1291.658s-51.891.019-59.109-.82.757-7.282.757-7.282-16.146.588-18.608-3.339,4.134-5.475,4.134-5.475-16.08-4.66-15.312-8.079c1.43-6.369,19.19-2.217,19.19-2.217s-6.6-3.2-3.915-6.178c4.043-4.489,21.309,7.717,21.309,7.717s-5.3-10.648-2.657-13.815C113.036,1239.809,156.922,1291.658,156.922,1291.658Z" transform="translate(-68.757 -1250.265)" fill="#bed1f9"/>
        </g>
      </g>
      <g id="Group_21125" data-name="Group 21125" transform="translate(101.029 50.354)">
        <path id="Path_29906" data-name="Path 29906" d="M435.954,1201.431s49.694-9.644,60.679-18.868-2.489-9.943-2.489-9.943,29.459-11.157,29.087-20.159-13.017-9.535-13.017-9.535,17.58-15.748,13.971-23.382c-5.546-11.732-30.69,10.517-30.69,10.517s.609-19.375-7.189-21.239c-11.76-2.811-21.918,33.569-21.918,33.569s-1.794-8.782-9.873-7.109C440.02,1138.284,435.954,1201.431,435.954,1201.431Z" transform="translate(-435.954 -1108.667)" fill="#2ca7ff"/>
      </g>
      <path id="Path_29907" data-name="Path 29907" d="M300.04,1455.007h69.739c8.882-10.047,9.773-24.886,9.575-40.064-.1-7.666,3.147-13.346.49-19.907l-89.915,1.251a59.72,59.72,0,0,0-3.719,21.654A57.2,57.2,0,0,0,300.04,1455.007Z" transform="translate(-226.377 -1265.893)" fill="#fa7167"/>
    </g>
    <g id="Group_21127" data-name="Group 21127" transform="translate(20.103 345.42)">
      <path id="Path_29908" data-name="Path 29908" d="M121.433,1607.18H606.621a2.782,2.782,0,0,1,2.782,2.782h0a2.782,2.782,0,0,1-2.782,2.781H121.354a2.782,2.782,0,0,1-2.779-2.916A2.833,2.833,0,0,1,121.433,1607.18Z" transform="translate(-118.572 -1607.18)" fill="#4951ec"/>
    </g>
    <g id="Group_21135" data-name="Group 21135" transform="translate(176.852)">
      <path id="Path_29909" data-name="Path 29909" d="M1189.495,407.536c10.35-3.208,19.467,7.924,14.324,17.514a8.159,8.159,0,0,0-.727,5.641l1.472,6.563a3.555,3.555,0,0,1-2.417,4.174l-3.921,1.215a3.555,3.555,0,0,1-4.354-2.076c-2.511-6.279-2.983-8.777-6.286-10.486C1177.922,425.082,1179.142,410.745,1189.495,407.536Z" transform="translate(-1166.674 -391.771)" fill="#bed1f9"/>
      <g id="Group_21128" data-name="Group 21128" transform="translate(19.053 23.838)">
        <path id="Path_29910" data-name="Path 29910" d="M1213.212,456.491c-1.84-5.141-3.668-10.871-4.281-13.035a16.436,16.436,0,0,1-5.892,1.107c1.733,4.184,3.373,8.451,4.882,12.707l-.55.2c-1.534-4.326-3.2-8.664-4.968-12.913a5.449,5.449,0,0,1-3.547-1,2.144,2.144,0,0,1-.645-1.557c.035-1.517,1.763-1.962,2.915-1a7.523,7.523,0,0,1,1.67,2.982,15.843,15.843,0,0,0,5.984-1.09,5.35,5.35,0,0,1,0-3.216c1.355-3.614,6.327,1.122.694,3.561.476,1.7,2.328,7.585,4.288,13.061Zm-3.887-16.613a4.748,4.748,0,0,0,0,2.785,3.429,3.429,0,0,0,2.144-1.948C1211.845,439.425,1210.054,437.932,1209.325,439.878ZM1199.1,441.3a1.322,1.322,0,0,0,.157,1.836,4.609,4.609,0,0,0,2.9.826,6.5,6.5,0,0,0-1.4-2.513A2.361,2.361,0,0,0,1199.1,441.3Z" transform="translate(-1198.21 -438.36)" fill="#fff"/>
      </g>
      <path id="Path_29911" data-name="Path 29911" d="M1230.239,492.575c.011.055.017.11.029.165l1.472,6.562a3.555,3.555,0,0,1-2.416,4.174l-3.921,1.215a3.555,3.555,0,0,1-4.354-2.076c-1.117-2.793-1.83-4.837-2.57-6.4Z" transform="translate(-1193.85 -453.821)" fill="#7c9af2"/>
      <g id="Group_21129" data-name="Group 21129" transform="translate(25.398 0)">
        <path id="Path_29912" data-name="Path 29912" d="M1223.6,359.58l.249-6.65a1.166,1.166,0,0,0-2.331-.088l-.25,6.65a1.167,1.167,0,0,0,2.332.087Z" transform="translate(-1221.272 -351.72)" fill="#bed1f9"/>
      </g>
      <g id="Group_21130" data-name="Group 21130" transform="translate(38.518 11.54)">
        <path id="Path_29913" data-name="Path 29913" d="M1270.736,399.485l5.961-3.662a1.166,1.166,0,0,0-1.221-1.988l-5.961,3.662a1.166,1.166,0,1,0,1.221,1.987Z" transform="translate(-1268.959 -393.663)" fill="#bed1f9"/>
      </g>
      <g id="Group_21131" data-name="Group 21131" transform="translate(46.921 30.322)">
        <path id="Path_29914" data-name="Path 29914" d="M1308.613,464.99a1.167,1.167,0,0,0-.746-1.471,38.123,38.123,0,0,0-7.052-1.581,1.166,1.166,0,1,0-.291,2.314,35.763,35.763,0,0,1,6.619,1.484A1.166,1.166,0,0,0,1308.613,464.99Z" transform="translate(-1299.502 -461.929)" fill="#bed1f9"/>
      </g>
      <g id="Group_21132" data-name="Group 21132" transform="translate(4.771 5.586)">
        <path id="Path_29915" data-name="Path 29915" d="M1153.717,381.716a1.167,1.167,0,0,0,.1-1.646,44.366,44.366,0,0,1-5.336-7.457,1.166,1.166,0,0,0-2.027,1.154,46.743,46.743,0,0,0,5.617,7.85A1.166,1.166,0,0,0,1153.717,381.716Z" transform="translate(-1146.301 -372.023)" fill="#bed1f9"/>
      </g>
      <g id="Group_21133" data-name="Group 21133" transform="translate(0 25.534)">
        <path id="Path_29916" data-name="Path 29916" d="M1138.734,445.5a1.167,1.167,0,0,0-1.348-.951l-7.457,1.287a1.166,1.166,0,1,0,.4,2.3l7.458-1.287A1.167,1.167,0,0,0,1138.734,445.5Z" transform="translate(-1128.961 -444.528)" fill="#bed1f9"/>
      </g>
      <g id="Group_21134" data-name="Group 21134" transform="translate(6.062 41.201)">
        <path id="Path_29917" data-name="Path 29917" d="M1152.682,509.339a1.157,1.157,0,0,0,.263-.18,36.581,36.581,0,0,0,5.189-5.846,1.166,1.166,0,0,0-1.9-1.353,34.259,34.259,0,0,1-4.858,5.473,1.166,1.166,0,0,0,1.305,1.907Z" transform="translate(-1150.995 -501.47)" fill="#bed1f9"/>
      </g>
    </g>
    <rect id="Rectangle_2817" data-name="Rectangle 2817" width="107.361" height="35.374" transform="translate(185.869 191.893)" fill="#2f8bcc"/>
    <rect id="Rectangle_2818" data-name="Rectangle 2818" width="80.298" height="138.011" transform="translate(257.421 189.871)" fill="#fae0b2"/>
    <rect id="Rectangle_2819" data-name="Rectangle 2819" width="8.148" height="18.043" transform="translate(296.228 327.542)" fill="#0976c4"/>
    <rect id="Rectangle_2820" data-name="Rectangle 2820" width="8.147" height="17.754" transform="translate(341.396 327.82)" fill="#0976c4"/>
    <path id="Path_29918" data-name="Path 29918" d="M1592.848,1365.758h-8.594c11.792-7.658,18.553-27.538,22.071-40.854a295.6,295.6,0,0,0,8.384-50.83l11.676,1.7C1622.707,1300.036,1612.74,1347.318,1592.848,1365.758Z" transform="translate(-1518.711 -1020.303)" fill="#0976c4"/>
    <rect id="Rectangle_2821" data-name="Rectangle 2821" width="130.577" height="138.011" transform="translate(251.205 189.871)" fill="#2f8bcc"/>
    <rect id="Rectangle_2822" data-name="Rectangle 2822" width="9.611" height="158.839" transform="translate(371.996 186.809)" fill="#0976c4"/>
    <g id="Group_21136" data-name="Group 21136" transform="translate(286.269 156.7)">
      <path id="Path_29919" data-name="Path 29919" d="M670.619,976.061H587.542A5.855,5.855,0,0,1,581.8,970.1v-3.543a5.855,5.855,0,0,1,5.745-5.959h83.076a11.77,11.77,0,0,0-.153,15.282Z" transform="translate(-573.402 -949.775)" fill="#2f8bcc"/>
      <path id="Path_29920" data-name="Path 29920" d="M638.269,967.038H592.191A5.855,5.855,0,0,0,586.445,973h0a5.855,5.855,0,0,0,5.746,5.959h46.082A11.823,11.823,0,0,1,638.269,967.038Z" transform="translate(-542.335 -954.443)" fill="#dde8fe"/>
      <path id="Path_29921" data-name="Path 29921" d="M742.573,921.26h-69.2a3.891,3.891,0,0,0-3.891,3.891v3.273a3.891,3.891,0,0,0,3.891,3.891h69.2l-.036-.038A7.924,7.924,0,0,1,742.573,921.26Z" transform="translate(-669.481 -921.26)" fill="#fa7167"/>
      <path id="Path_29922" data-name="Path 29922" d="M714.818,927.208H677.825a3.891,3.891,0,0,0-3.891,3.891h0a3.891,3.891,0,0,0,3.891,3.891h36.993A7.936,7.936,0,0,1,714.818,927.208Z" transform="translate(-642.952 -925.572)" fill="#dde8fe"/>
    </g>
    <g id="Group_21152" data-name="Group 21152" transform="translate(52.996 35.837)">
      <path id="Path_29923" data-name="Path 29923" d="M1159.569,819.269c5.209-6.615,16.253-2.435,12.154,19.483-.023.123-1.138,17.212-.639,23.819,5.252-1.221,14.82-4.4,21.8-4.754,0,0,8.543-8.324,11.9-9.838,2.491-1.122,9.246-.555,9.246-.555s9.846,5.2,9.084,6.88c-1.042,2.3-6.718-4.223-9.819-3.162,0,0,7.18,4.024,5.47,4.753s-4.577-.227-5.972-.325-6.434,4.057-10.361,6.121c-.648.341-2.164,1.67-5.124,3.3-3,1.648-6.163,4.429-10.263,6.119-11.026,4.544-23.281,10.571-27.522,7.337l.022-.047C1154.705,872.665,1150.884,830.3,1159.569,819.269Z" transform="translate(-1050.213 -724.39)" fill="#ef7f7f"/>
      <path id="Path_29924" data-name="Path 29924" d="M1327.3,875.187h0c5.881-1.26,11.778,2.035,13.274,7.416l21.969,79a6.818,6.818,0,0,0,6.68,4.771h67.105a10.124,10.124,0,0,1,10.124,10.124h0a10.125,10.125,0,0,1-9.757,10.117l-80.68,2.929c-5.371,0-11.366-7.249-12.662-12.044l-24.31-89.9C1317.545,882.067,1321.262,876.48,1327.3,875.187Z" transform="translate(-1318.71 -766.805)" fill="#0976c4"/>
      <path id="Path_29925" data-name="Path 29925" d="M1345.562,1345.346h-4.344c-3.922-26.982-4.716-58.6-.333-99.432l10.514.214C1344.42,1286.651,1343.271,1318.3,1345.562,1345.346Z" transform="translate(-1228.945 -1035.727)" fill="#0976c4"/>
      <rect id="Rectangle_2823" data-name="Rectangle 2823" width="11.353" height="160.632" transform="translate(130.697 149.507)" fill="#0976c4"/>
      <path id="Path_29926" data-name="Path 29926" d="M1065.783,1481.772c2.952,5.489,10.168,23.586,10.44,24.956a6.707,6.707,0,0,0,1.442,1.965c9.317.933,16.133-4.069,21.308-9-4.886.343-12.355-.919-13.441-1.1-2.834-.484-2.531-9.1-4.15-18.79C1078.87,1480.949,1069.443,1478.459,1065.783,1481.772Z" transform="translate(-901.645 -1205.261)" fill="#fb9390"/>
      <path id="Path_29927" data-name="Path 29927" d="M1019.962,1556.4c.771,3.03,3.977,8.615,4.6,8.454.74-.192,28.241-10.065,30.608-14.006,1.46-2.431-6.058-2.547-12.111-2.238C1037.879,1553.542,1021.552,1557.186,1019.962,1556.4Z" transform="translate(-845.413 -1255.052)" fill="#2f8bcc"/>
      <path id="Path_29928" data-name="Path 29928" d="M1124.7,1135.488l56.8,6.253,30.5,78.2,18.536-3.628s-10.4-83.563-16.463-90.556c-16.528-19.074-74.273-16.816-74.273-16.816Z" transform="translate(-1049.415 -936.382)" fill="#71c4ff"/>
      <path id="Path_29929" data-name="Path 29929" d="M1246.015,1498.341c.237,3.723,1.089,8.229.922,12.572a34.969,34.969,0,0,1-1.324,7.007,6.728,6.728,0,0,0,.492,2.388c8.079,4.732,16.36,3.027,23.12.7a24.139,24.139,0,0,1-8.926-6.411c-1.948-2.115-.56-8.458,2.007-17.936C1259.541,1496.663,1250.722,1496.856,1246.015,1498.341Z" transform="translate(-1121.369 -1217.487)" fill="#fb9390"/>
      <path id="Path_29930" data-name="Path 29930" d="M1239.969,1079.036s59.466,3.219,74.459,25.165c11.219,16.421-16.718,97.413-16.718,97.413l-16.811-3.1s3.873-54.883,6.674-72.992c.475-3.068,2.66-12.131,2.66-12.131s-63.708,6.263-74.044.888-14.669-19.95-10.121-29.459S1239.969,1079.036,1239.969,1079.036Z" transform="translate(-1157.859 -914.243)" fill="#2ca7ff"/>
      <path id="Path_29931" data-name="Path 29931" d="M1203.158,1573.473c-1.048,1.921-1.59,9.361-.96,9.473.753.135,32.358,1.9,36.152-.691,2.341-1.6-5.979-3.326-11.61-5.569C1219.98,1579.012,1203.5,1575.531,1203.158,1573.473Z" transform="translate(-1078.884 -1273.164)" fill="#2f8bcc"/>
      <path id="Path_29932" data-name="Path 29932" d="M1392.28,772.4c5.3.927,5.62,5.2,5.62,5.2l5.425,22.609s.5,9.577-.6,13.242c-2.139,7.129-6.461,9.94-13.543,12.362-9.387,3.211-13.1,11.3-17.146,16.028-7.023,8.194-1.307,18-1.307,18l-18.677,5.895-27.941-3.751s-3.14-4.835,7.98-31.757C1341.748,806.85,1364.892,767.609,1392.28,772.4Z" transform="translate(-1277.072 -692.202)" fill="#fa7167"/>
      <path id="Path_29933" data-name="Path 29933" d="M1448.691,1218.392h-4.266c-5.522-40.709-3.854-86.063,1.6-126.617a7.761,7.761,0,0,0-7.323-8.79l-64.233-3.043v-4.436c.026,0,54.307-3.321,78.693-4.72a6.963,6.963,0,0,1,7.189,8.486c-.716,3.173-1.569,7.158-2.5,11.932C1449.83,1131.89,1445.418,1176.984,1448.691,1218.392Z" transform="translate(-1348.128 -908.773)" fill="#2f8bcc"/>
      <path id="Path_29934" data-name="Path 29934" d="M1178.3,783.779c6.023-6.615,16.685-2.369,11.946,19.549-.026.123.015,21.235.592,27.842,6.072-1.221,19.154-7.109,27.447-9.083,0,0,8.415-8.084,12.3-9.6,2.879-1.122,10.69-.555,10.69-.555s11.384,5.2,10.5,6.879c-1.2,2.3-7.768-4.223-11.353-3.162,0,0,8.3,4.024,6.324,4.753s-5.292-.228-6.906-.325-6.039,4.67-10.579,6.734a65.131,65.131,0,0,0-7.325,2.682c-3.472,1.648-38,25.769-41.172,20.828C1172.354,837.234,1168.255,794.808,1178.3,783.779Z" transform="translate(-1083.829 -698.674)" fill="#fb9390"/>
      <path id="Path_29935" data-name="Path 29935" d="M1379.228,821.285a178.786,178.786,0,0,0,20.4-4.158s1.739-19.61,1.81-20.338c.626-10.07,1.876-16.784-4.64-23.958-3.094-3.407-17.475-1.317-19.878,10.808-2.227,11.238.123,27.177,1.648,37.148l.087.572Z" transform="translate(-1289.988 -691.74)" fill="#e8605d"/>
      <path id="Path_29936" data-name="Path 29936" d="M1409.023,524.882c-.748-6.495-.74-31.177-15.741-30.668s-15.09,17.019-27.239-2.875c-11.255-18.43-32.044-6.52-30.111,8.732a13.578,13.578,0,0,0-6.147,2.2c-6.561,4.36-8.145,13.514-3.537,20.447.732,1.1.671,2.344,1.6,3.195-.462,6.891,2.142,14.173,8.659,20.834,17.8,18.2,27.523-6.362,37.107-6.972s4.871,7.868,14.065,12.04,15.439,1.437,25.68-16.653l2.443-4.914A5.659,5.659,0,0,1,1409.023,524.882Z" transform="translate(-1289.408 -481.971)" fill="#0b0754"/>
      <path id="Path_29937" data-name="Path 29937" d="M1206.1,613.644c-10.556,7.366-12.888,26.122-3.172,35.079,6.314,5.821,18.753,6.834,25.659,1.06,11.2-9.364,12.451-19.964,8.479-28.284C1231.941,610.762,1214.807,607.567,1206.1,613.644Z" transform="translate(-1077.833 -575.205)" fill="#0b0754"/>
      <path id="Path_29938" data-name="Path 29938" d="M1296.827,714.046a30.171,30.171,0,0,1-14.7,15.922c-1.41.717,15.979,28.684,15.987,28.35.05-2.158-3.006-14.757-2.263-16.3,2.034-4.238,13.841-23.557,13.841-23.557Z" transform="translate(-1171.858 -650.194)" fill="#fb9390"/>
      <path id="Path_29939" data-name="Path 29939" d="M1290.354,716.3l6.291,2.158h0c-.012.019-5.188,8.49-9.273,15.438a13.724,13.724,0,0,1-3.755-5.271,20.056,20.056,0,0,1-1.258-11.448,20.322,20.322,0,0,0,1.427-3.131Z" transform="translate(-1158.817 -650.194)" fill="#ef7f7f"/>
      <path id="Path_29940" data-name="Path 29940" d="M1237.12,642.319a17.3,17.3,0,0,0-11.762-.088c-6.128,2.3-17.138,17.192-11.464,30.26s19.238,6.573,25.259-1.714S1251.167,649.992,1237.12,642.319Z" transform="translate(-1088.721 -597.415)" fill="#fb9390"/>
      <path id="Path_29941" data-name="Path 29941" d="M1215.8,640.807c4.855-8.431,10.182-13.376,17.668-11.457s14.2,3.2,14.7,11.986l.54,1.5s-10.841-5.295-15.336-1.152-13.913,5.5-15.164,8.371-4.349,8.076-4.349,8.076l-.559-3.23S1210.945,649.238,1215.8,640.807Z" transform="translate(-1091.813 -588.502)" fill="#0b0754"/>
      <path id="Path_29942" data-name="Path 29942" d="M1296.1,674.271c-1.013,2.615-3.3,4.125-5.114,3.373s-2.459-3.483-1.446-6.1,3.3-4.125,5.115-3.373S1297.113,671.656,1296.1,674.271Z" transform="translate(-1160.681 -616.802)" fill="#fb9390"/>
      <rect id="Rectangle_2824" data-name="Rectangle 2824" width="10.788" height="158.839" transform="translate(189.241 150.972)" fill="#0976c4"/>
      <g id="Group_21151" data-name="Group 21151" transform="translate(161.703 67.334)">
        <path id="Path_29943" data-name="Path 29943" d="M878.312,726.7a19.326,19.326,0,0,0-10.86,10.762c-4.245,11.058,2.32,28.78.445,33.716S857.184,781.5,857.184,781.5l-20.042-7.109s7.01-13.23,6.812-17.771.494-25.966,8.886-29.915Z" transform="translate(-779.779 -726.703)" fill="#bed1f9"/>
        <g id="Group_21137" data-name="Group 21137" transform="translate(71.678 3.752)">
          <path id="Path_29944" data-name="Path 29944" d="M873.421,741.129h16.192a.395.395,0,0,0,0-.79H873.421a.395.395,0,0,0,0,.79Z" transform="translate(-873.026 -740.339)" fill="#4951ec"/>
        </g>
        <g id="Group_21138" data-name="Group 21138" transform="translate(68.815 6.812)">
          <path id="Path_29945" data-name="Path 29945" d="M882.392,752.253h16.587a.395.395,0,1,0,0-.79H882.392a.395.395,0,0,0,0,.79Z" transform="translate(-881.997 -751.463)" fill="#4951ec"/>
        </g>
        <g id="Group_21139" data-name="Group 21139" transform="translate(68.026 10.268)">
          <path id="Path_29946" data-name="Path 29946" d="M904.282,764.813h11.354a.395.395,0,0,0,0-.79H904.282a.395.395,0,0,0,0,.79Z" transform="translate(-903.887 -764.023)" fill="#4951ec"/>
        </g>
        <rect id="Rectangle_2825" data-name="Rectangle 2825" width="17.903" height="4.41" transform="translate(69.111 75.233)" fill="#0b0754"/>
        <rect id="Rectangle_2826" data-name="Rectangle 2826" width="19.088" height="5.299" transform="translate(6.714 74.311)" fill="#0b0754"/>
        <path id="Path_29947" data-name="Path 29947" d="M856.758,860.611h6.187V850.146h-5.463Z" transform="translate(-769.809 -816.182)" fill="#0b0754"/>
        <path id="Path_29948" data-name="Path 29948" d="M835.945,805.544a8.03,8.03,0,1,0,8.03-8.03A8.03,8.03,0,0,0,835.945,805.544Z" transform="translate(-753.143 -778.031)" fill="#2f8bcc"/>
        <path id="Path_29949" data-name="Path 29949" d="M849.82,815.6a4.213,4.213,0,1,0,4.213-4.213A4.212,4.212,0,0,0,849.82,815.6Z" transform="translate(-763.201 -788.09)" fill="#0976c4"/>
        <g id="Group_21140" data-name="Group 21140" transform="translate(76.187 14.382)">
          <path id="Path_29950" data-name="Path 29950" d="M895.394,782.134a3.159,3.159,0,1,0,3.159-3.159A3.159,3.159,0,0,0,895.394,782.134Z" transform="translate(-895.394 -778.975)" fill="#0b0754"/>
        </g>
        <g id="Group_21141" data-name="Group 21141" transform="translate(75.712 19.153)">
          <path id="Path_29951" data-name="Path 29951" d="M883.01,821.251l1.5-2.081c-.086-.062-8.577-6.244-10.3-11.318-1.692-4.986.54-10.494.563-10.549l-2.37-.986c-.108.26-2.632,6.439-.623,12.359C873.769,814.527,882.634,820.979,883.01,821.251Z" transform="translate(-871.011 -796.318)" fill="#0b0754"/>
        </g>
        <g id="Group_21142" data-name="Group 21142" transform="translate(55.651 14.382)">
          <path id="Path_29952" data-name="Path 29952" d="M970.034,782.134a3.159,3.159,0,1,0,3.159-3.159A3.159,3.159,0,0,0,970.034,782.134Z" transform="translate(-970.034 -778.975)" fill="#0b0754"/>
        </g>
        <g id="Group_21143" data-name="Group 21143" transform="translate(55.176 19.153)">
          <path id="Path_29953" data-name="Path 29953" d="M957.65,821.251l1.5-2.081c-.086-.062-8.577-6.244-10.3-11.318-1.692-4.986.54-10.494.563-10.549l-2.37-.986c-.108.26-2.632,6.439-.623,12.359C948.41,814.527,957.274,820.979,957.65,821.251Z" transform="translate(-945.651 -796.318)" fill="#0b0754"/>
        </g>
        <g id="Group_21144" data-name="Group 21144" transform="translate(60.094 16.356)">
          <rect id="Rectangle_2827" data-name="Rectangle 2827" width="18.66" height="1.58" fill="#0976c4"/>
        </g>
        <g id="Group_21145" data-name="Group 21145" transform="translate(47.407 21.178)">
          <ellipse id="Ellipse_1" data-name="Ellipse 1" cx="6.187" cy="7.109" rx="6.187" ry="7.109" fill="#2f8bcc"/>
          <rect id="Rectangle_2828" data-name="Rectangle 2828" width="15.27" height="14.431" transform="translate(6.023 0.033)" fill="#4951ec"/>
          <path id="Path_29954" data-name="Path 29954" d="M919.257,811.023a7.514,7.514,0,1,0,7.5-7.109A7.314,7.314,0,0,0,919.257,811.023Z" transform="translate(-905.731 -803.848)" fill="#0976c4"/>
        </g>
        <path id="Path_29955" data-name="Path 29955" d="M1106.634,918.012c0,.818,1.525,1.481,3.406,1.481s3.406-.663,3.406-1.481-1.525-1.481-3.406-1.481S1106.634,917.194,1106.634,918.012Z" transform="translate(-1089.06 -864.303)" fill="#0b0754"/>
        <path id="Path_29956" data-name="Path 29956" d="M1136.418,931.754c0,.777,1.238,1.407,2.765,1.407s2.764-.63,2.764-1.407-1.238-1.407-2.764-1.407S1136.418,930.977,1136.418,931.754Z" transform="translate(-1125.755 -874.318)" fill="#0b0754"/>
        <path id="Path_29957" data-name="Path 29957" d="M1168,931.754c0,.777,1.238,1.407,2.764,1.407s2.765-.63,2.765-1.407-1.238-1.407-2.765-1.407S1168,930.977,1168,931.754Z" transform="translate(-1166.021 -874.318)" fill="#0b0754"/>
        <path id="Path_29958" data-name="Path 29958" d="M1152.565,920.271c0,.777,1.238,1.407,2.765,1.407s2.765-.63,2.765-1.407-1.238-1.407-2.765-1.407S1152.565,919.494,1152.565,920.271Z" transform="translate(-1146.345 -865.994)" fill="#0b0754"/>
        <g id="Group_21146" data-name="Group 21146" transform="translate(12.687 58.004)">
          <rect id="Rectangle_2829" data-name="Rectangle 2829" width="1.382" height="10.317" transform="translate(0)" fill="#0b0754"/>
        </g>
        <path id="Path_29959" data-name="Path 29959" d="M1122.064,941.8c0,.777,1.238,1.407,2.764,1.407s2.765-.63,2.765-1.407-1.238-1.407-2.765-1.407S1122.064,941.025,1122.064,941.8Z" transform="translate(-1107.452 -881.601)" fill="#0b0754"/>
        <g id="Group_21147" data-name="Group 21147" transform="translate(16.636 60.768)">
          <rect id="Rectangle_2830" data-name="Rectangle 2830" width="1.382" height="10.317" transform="translate(0)" fill="#0b0754"/>
        </g>
        <g id="Group_21148" data-name="Group 21148" transform="translate(20.289 54.647)">
          <rect id="Rectangle_2831" data-name="Rectangle 2831" width="1.383" height="10.317" transform="translate(0)" fill="#0b0754"/>
        </g>
        <g id="Group_21149" data-name="Group 21149" transform="translate(3.999 57.955)">
          <rect id="Rectangle_2832" data-name="Rectangle 2832" width="1.382" height="10.318" transform="translate(0)" fill="#0b0754"/>
        </g>
        <g id="Group_21150" data-name="Group 21150" transform="translate(8.294 55.338)">
          <rect id="Rectangle_2833" data-name="Rectangle 2833" width="1.382" height="10.91" transform="translate(0)" fill="#0b0754"/>
        </g>
        <path id="Path_29960" data-name="Path 29960" d="M838.577,879.66v11.919h98.138V859.393H921.773l-5.791-10.466-36.2-.174-3.564-.016C877.714,869.594,858.021,884.99,838.577,879.66Z" transform="translate(-838.577 -815.162)" fill="#0976c4"/>
        <path id="Path_29961" data-name="Path 29961" d="M1045.264,879.66v3.673a33.4,33.4,0,0,0,41.2-34.579l-3.564-.016C1084.4,869.594,1064.708,884.99,1045.264,879.66Z" transform="translate(-1045.264 -815.162)" fill="#2f8bcc"/>
        <path id="Path_29962" data-name="Path 29962" d="M852.805,920.562h69.309V896.669a.592.592,0,1,1,1.185,0v24.485a.592.592,0,0,1-.592.592h-69.9a.592.592,0,0,1,0-1.185Z" transform="translate(-828.912 -849.477)" fill="#4951ec"/>
      </g>
      <path id="Rectangle_2834" data-name="Rectangle 2834" d="M4.887,0h233.73A4.887,4.887,0,0,1,243.5,4.887v0a4.888,4.888,0,0,1-4.888,4.888H4.888A4.888,4.888,0,0,1,0,4.887v0A4.887,4.887,0,0,1,4.887,0Z" transform="translate(113.553 146.933)" fill="#0976c4"/>
    </g>
    <g id="Group_21154" data-name="Group 21154" transform="translate(366.767 121.568)">
      <path id="Path_29963" data-name="Path 29963" d="M587.281,838.961l4.56.428L596,801.008l-1.426-7.437-3.135,7.009Z" transform="translate(-580.791 -793.571)" fill="#fa7167"/>
      <path id="Path_29964" data-name="Path 29964" d="M587.369,806.295l.008-.07,2.176-4.866,1.392.119.968,5.049A19.855,19.855,0,0,1,587.369,806.295Z" transform="translate(-576.728 -799.216)" fill="#dde8fe"/>
      <path id="Path_29965" data-name="Path 29965" d="M608.717,863.375l4.558-.445L609.067,828.6c-.14-1.243-1.113-3.941-2.358-3.82h0c-1.272.124-1.4,2.986-1.259,4.255Z" transform="translate(-603.052 -816.193)" fill="#0b0754"/>
      <g id="Group_21153" data-name="Group 21153" transform="translate(2.997 6.335)">
        <path id="Path_29966" data-name="Path 29966" d="M628.422,822l.032,0a.262.262,0,0,0,.227-.292l-.61-4.882a.262.262,0,0,0-.519.065l.61,4.882A.262.262,0,0,0,628.422,822Z" transform="translate(-627.55 -816.597)" fill="#0b0754"/>
      </g>
      <path id="Rectangle_2835" data-name="Rectangle 2835" d="M0,0H20.356a0,0,0,0,1,0,0V22.124A10.178,10.178,0,0,1,10.178,32.3h0A10.178,10.178,0,0,1,0,22.125V0A0,0,0,0,1,0,0Z" transform="translate(0 28.93)" fill="#71c4ff"/>
      <path id="Path_29967" data-name="Path 29967" d="M568.575,927.273V898.721h12.161v28.552a3.75,3.75,0,0,1-3.75,3.75h-4.661A3.75,3.75,0,0,1,568.575,927.273Z" transform="translate(-560.381 -869.791)" fill="#92b5f9"/>
    </g>
    <g id="Group_21155" data-name="Group 21155" transform="translate(218.704 129.676)">
      <path id="Path_29968" data-name="Path 29968" d="M1141.241,839.278l-.947,2.016a1.36,1.36,0,0,1-1.458.762h0a1.359,1.359,0,0,1-.987-1.95l4.919-9.8,3.581.609,1.446,10.879a1.36,1.36,0,0,1-1.576,1.519l-.122-.021a1.359,1.359,0,0,1-1.121-1.173l-.28-2.254Zm3.409-1.521-.317-2.689c-.093-.753-.155-1.685-.213-2.432l-.036-.006c-.3.686-.635,1.569-.952,2.233l-1.151,2.439Z" transform="translate(-1137.702 -830.306)" fill="#92b5f9"/>
    </g>
    <g id="Group_21156" data-name="Group 21156" transform="translate(231.74 112.774)">
      <path id="Path_29969" data-name="Path 29969" d="M1068.9,777.518a28.533,28.533,0,0,1,4.038-2.3,8.766,8.766,0,0,1,4.61-1.218,3.452,3.452,0,0,1,3.061,1.977,3.587,3.587,0,0,1-.891,4.186l.02.042a3.969,3.969,0,0,1,4.532,2.16,4.226,4.226,0,0,1-.031,3.746c-.643,1.326-2.16,2.627-5,3.99a27.921,27.921,0,0,1-3.6,1.466Zm5.828,3.939,1.061-.509c1.7-.814,2.275-1.951,1.766-3.012-.519-1.082-1.621-1.259-3.085-.557a9.761,9.761,0,0,0-1.339.746Zm3.041,6.345a11.345,11.345,0,0,0,1.273-.558c1.464-.7,2.494-1.874,1.772-3.38-.692-1.443-2.261-1.4-3.874-.623l-1.1.529Z" transform="translate(-1068.899 -773.978)" fill="#bed1f9"/>
    </g>
    <g id="Group_21157" data-name="Group 21157" transform="translate(246.137 94.173)">
      <path id="Path_29970" data-name="Path 29970" d="M1131.549,709.244a1.59,1.59,0,0,1-.993,2,14.869,14.869,0,0,1-2.881.649c-5.945.766-9.483-2.539-10.114-7.438-.756-5.869,3.007-9.673,8.212-10.344a13.259,13.259,0,0,1,2.718-.083,1.585,1.585,0,0,1,1.433,1.78l-.007.059a1.589,1.589,0,0,1-1.711,1.389,8.826,8.826,0,0,0-1.841.047c-3.087.4-5.245,2.569-4.753,6.4.443,3.444,2.764,5.351,6.235,4.9a10.3,10.3,0,0,0,1.735-.39,1.582,1.582,0,0,1,1.965,1.025Z" transform="translate(-1117.464 -693.998)" fill="#bed1f9"/>
    </g>
    <g id="Group_21158" data-name="Group 21158" transform="translate(220.434 69.979)">
      <path id="Path_29971" data-name="Path 29971" d="M1024.046,609.774a44.746,44.746,0,0,1,6.3-2.567c4-1.322,6.835-1.461,9.373-.6,2.726.9,4.959,3.043,6.189,6.764,1.332,4.034.783,7.3-.682,9.692-1.61,2.579-4.7,4.57-8.824,5.933a43.589,43.589,0,0,1-5.513,1.475Zm10.466,15.615a9.231,9.231,0,0,0,1.689-.454c4.324-1.394,6.353-4.7,4.69-9.734-1.415-4.387-4.743-5.854-8.839-4.5a10.389,10.389,0,0,0-2.1.9Z" transform="translate(-1024.045 -606.065)" fill="#92b5f9"/>
    </g>
    <g id="Group_21188" data-name="Group 21188" transform="translate(381.607 203.769)">
      <g id="Group_21171" data-name="Group 21171" transform="translate(55.99 61.391)">
        <g id="Group_21169" data-name="Group 21169" transform="translate(34.967)">
          <g id="Group_21159" data-name="Group 21159" transform="translate(4.718 0.306)">
            <path id="Path_29972" data-name="Path 29972" d="M1886.183,1315.26a2.166,2.166,0,1,1-2.4-1.9A2.166,2.166,0,0,1,1886.183,1315.26Z" transform="translate(-1881.865 -1313.346)" fill="#fa7167"/>
            <path id="Path_29973" data-name="Path 29973" d="M1885.244,1319.828a1.4,1.4,0,1,0,1.01-2.157,1.4,1.4,0,0,0-1.01,2.157Z" transform="translate(-1884.149 -1316.474)" fill="#fa7167"/>
          </g>
          <g id="Group_21160" data-name="Group 21160" transform="translate(19.38 4.72)">
            <path id="Path_29974" data-name="Path 29974" d="M1935.667,1330.159a2.166,2.166,0,1,0,3.052-.257A2.166,2.166,0,0,0,1935.667,1330.159Z" transform="translate(-1935.155 -1329.39)" fill="#fa7167"/>
            <path id="Path_29975" data-name="Path 29975" d="M1937.288,1335.72a1.4,1.4,0,0,0,2.076-1.837,1.426,1.426,0,0,0-.269-.3,1.4,1.4,0,1,0-1.807,2.14Z" transform="translate(-1936.343 -1332.188)" fill="#fa7167"/>
          </g>
          <g id="Group_21161" data-name="Group 21161" transform="translate(10.125)">
            <path id="Path_29976" data-name="Path 29976" d="M1901.516,1314.391a2.166,2.166,0,1,0,2.172-2.159A2.166,2.166,0,0,0,1901.516,1314.391Z" transform="translate(-1901.516 -1312.233)" fill="#fa7167"/>
            <path id="Path_29977" data-name="Path 29977" d="M1905.5,1319.382a1.4,1.4,0,1,0-1.4-1.4A1.4,1.4,0,0,0,1905.5,1319.382Z" transform="translate(-1903.394 -1315.385)" fill="#fa7167"/>
          </g>
          <g id="Group_21162" data-name="Group 21162" transform="translate(0 2.333)">
            <path id="Path_29978" data-name="Path 29978" d="M1865.219,1324.264a2.166,2.166,0,1,0,.277-3.05A2.166,2.166,0,0,0,1865.219,1324.264Z" transform="translate(-1864.717 -1320.712)" fill="#fa7167"/>
            <path id="Path_29979" data-name="Path 29979" d="M1868.681,1327.116a1.4,1.4,0,1,0,.179-1.972A1.4,1.4,0,0,0,1868.681,1327.116Z" transform="translate(-1867.354 -1323.689)" fill="#fa7167"/>
          </g>
          <g id="Group_21163" data-name="Group 21163" transform="translate(16.651 27.742)">
            <path id="Path_29980" data-name="Path 29980" d="M1925.465,1416.2a2.166,2.166,0,1,1,2.908.964A2.166,2.166,0,0,1,1925.465,1416.2Z" transform="translate(-1925.235 -1413.062)" fill="#fa7167"/>
            <path id="Path_29981" data-name="Path 29981" d="M1927.378,1416.7a1.4,1.4,0,1,0,.541-2.021,1.4,1.4,0,0,0-.541,2.021Z" transform="translate(-1926.621 -1414.125)" fill="#fa7167"/>
          </g>
          <g id="Group_21164" data-name="Group 21164" transform="translate(22.831 19.39)">
            <path id="Path_29982" data-name="Path 29982" d="M1949.005,1386.861a2.166,2.166,0,1,1,2.847-1.13A2.166,2.166,0,0,1,1949.005,1386.861Z" transform="translate(-1947.697 -1382.707)" fill="#fa7167"/>
            <path id="Path_29983" data-name="Path 29983" d="M1949.185,1387.2a1.4,1.4,0,1,0,1.725-2.055,1.4,1.4,0,0,0-1.725,2.055Z" transform="translate(-1948.605 -1384.385)" fill="#fa7167"/>
          </g>
          <g id="Group_21165" data-name="Group 21165" transform="translate(22.197 9.019)">
            <path id="Path_29984" data-name="Path 29984" d="M1948.18,1349.255a2.166,2.166,0,1,1,1.454-2.7A2.166,2.166,0,0,1,1948.18,1349.255Z" transform="translate(-1945.393 -1345.014)" fill="#fa7167"/>
            <path id="Path_29985" data-name="Path 29985" d="M1949.362,1350.5a1.4,1.4,0,1,0-2.574-.263A1.392,1.392,0,0,0,1949.362,1350.5Z" transform="translate(-1946.361 -1347.494)" fill="#fa7167"/>
          </g>
          <g id="Group_21166" data-name="Group 21166" transform="translate(20.392 24.224)">
            <path id="Path_29986" data-name="Path 29986" d="M1942.088,1400.572a2.166,2.166,0,1,0,.783,2.961A2.165,2.165,0,0,0,1942.088,1400.572Z" transform="translate(-1938.833 -1400.278)" fill="#fa7167"/>
            <path id="Path_29987" data-name="Path 29987" d="M1942.106,1404.867a1.4,1.4,0,1,0-1.568-2.057A1.4,1.4,0,0,0,1942.106,1404.867Z" transform="translate(-1939.929 -1401.609)" fill="#fa7167"/>
          </g>
          <g id="Group_21167" data-name="Group 21167" transform="translate(15.045 1.482)">
            <path id="Path_29988" data-name="Path 29988" d="M1923.376,1320.976a2.166,2.166,0,1,1-.619-3A2.166,2.166,0,0,1,1923.376,1320.976Z" transform="translate(-1919.4 -1317.62)" fill="#fa7167"/>
            <path id="Path_29989" data-name="Path 29989" d="M1922.11,1324.386a1.4,1.4,0,1,0-.4-.4A1.4,1.4,0,0,0,1922.11,1324.386Z" transform="translate(-1920.907 -1320.662)" fill="#fa7167"/>
          </g>
          <g id="Group_21168" data-name="Group 21168" transform="translate(23.436 14.29)">
            <path id="Path_29990" data-name="Path 29990" d="M1951.695,1364.2a2.166,2.166,0,1,0,2.5,1.765A2.166,2.166,0,0,0,1951.695,1364.2Z" transform="translate(-1949.898 -1364.172)" fill="#fa7167"/>
            <path id="Path_29991" data-name="Path 29991" d="M1952.745,1369.818a1.4,1.4,0,1,0-1.618-1.142A1.4,1.4,0,0,0,1952.745,1369.818Z" transform="translate(-1950.774 -1366.249)" fill="#fa7167"/>
          </g>
          <path id="Path_29992" data-name="Path 29992" d="M1876.395,1329.646l-.342.225,14.311,21.838.343-.224-6.365-9.762,9.352,6.954.244-.328-9.745-7.247,11.619,3.531.119-.391-11.151-3.388,11.634-.684-.024-.408-12.123.712,11.17-4.764-.16-.376-10.721,4.572,8.471-8-.281-.3-8.826,8.34,5.494-10.829-.365-.185-5.273,10.394,1.344-11.578-.406-.047-1.4,12.063-2.754-11.828-.4.093,2.644,11.351Z" transform="translate(-1872.934 -1323.444)" fill="#fa7167"/>
        </g>
        <g id="Group_21170" data-name="Group 21170" transform="translate(0 15.832)">
          <rect id="Rectangle_2836" data-name="Rectangle 2836" width="54.724" height="1.75" transform="matrix(0.836, -0.548, 0.548, 0.836, 0, 29.988)" fill="#fa7167"/>
        </g>
      </g>
      <g id="Group_21184" data-name="Group 21184" transform="translate(48.553 -0.001)">
        <g id="Group_21182" data-name="Group 21182" transform="translate(17.429)">
          <g id="Group_21172" data-name="Group 21172" transform="translate(5.326 6.728)">
            <path id="Path_29993" data-name="Path 29993" d="M1799.953,1115.082a3.666,3.666,0,1,1-5.116-.842A3.666,3.666,0,0,1,1799.953,1115.082Z" transform="translate(-1793.307 -1113.552)" fill="#fa7167"/>
            <path id="Path_29994" data-name="Path 29994" d="M1801.092,1124.693a2.371,2.371,0,1,0-.273-4.022,2.373,2.373,0,0,0,.273,4.022Z" transform="translate(-1798.037 -1118.389)" fill="#fa7167"/>
          </g>
          <g id="Group_21173" data-name="Group 21173" transform="translate(30.657 1.24)">
            <path id="Path_29995" data-name="Path 29995" d="M1885.446,1096.561a3.666,3.666,0,1,0,4.309-2.884A3.666,3.666,0,0,0,1885.446,1096.561Z" transform="translate(-1885.375 -1093.607)" fill="#fa7167"/>
            <path id="Path_29996" data-name="Path 29996" d="M1891.185,1105.551a2.37,2.37,0,1,0-.858-4.294A2.372,2.372,0,0,0,1891.185,1105.551Z" transform="translate(-1888.206 -1098.861)" fill="#fa7167"/>
          </g>
          <g id="Group_21174" data-name="Group 21174" transform="translate(13.08 1.84)">
            <path id="Path_29997" data-name="Path 29997" d="M1821.943,1101.22a3.666,3.666,0,1,0,1.447-4.978A3.666,3.666,0,0,0,1821.943,1101.22Z" transform="translate(-1821.489 -1095.788)" fill="#fa7167"/>
            <path id="Path_29998" data-name="Path 29998" d="M1830.7,1107.394a2.37,2.37,0,1,0-3.219-.936A2.374,2.374,0,0,0,1830.7,1107.394Z" transform="translate(-1825.614 -1100.969)" fill="#fa7167"/>
          </g>
          <g id="Group_21175" data-name="Group 21175" transform="translate(0 13.597)">
            <path id="Path_29999" data-name="Path 29999" d="M1776.29,1145.606a3.666,3.666,0,1,0-2.092-4.745A3.667,3.667,0,0,0,1776.29,1145.606Z" transform="translate(-1773.949 -1138.521)" fill="#fa7167"/>
            <path id="Path_30000" data-name="Path 30000" d="M1782.531,1149.069a2.37,2.37,0,1,0-1.352-3.067A2.373,2.373,0,0,0,1782.531,1149.069Z" transform="translate(-1779.072 -1142.847)" fill="#fa7167"/>
          </g>
          <g id="Group_21176" data-name="Group 21176" transform="translate(45.496 37.568)">
            <path id="Path_30001" data-name="Path 30001" d="M1940.907,1232.339a3.666,3.666,0,1,1,5.1-.958A3.666,3.666,0,0,1,1940.907,1232.339Z" transform="translate(-1939.309 -1225.646)" fill="#fa7167"/>
            <path id="Path_30002" data-name="Path 30002" d="M1942.921,1233.588a2.371,2.371,0,1,0-.855-3.437,2.368,2.368,0,0,0,.855,3.437Z" transform="translate(-1941.007 -1228.162)" fill="#fa7167"/>
          </g>
          <g id="Group_21177" data-name="Group 21177" transform="translate(47.798 20.132)">
            <path id="Path_30003" data-name="Path 30003" d="M1951.7,1169.587a3.666,3.666,0,1,1,3.288-4.008A3.666,3.666,0,0,1,1951.7,1169.587Z" transform="translate(-1947.677 -1162.272)" fill="#fa7167"/>
            <path id="Path_30004" data-name="Path 30004" d="M1951.06,1172.03a2.37,2.37,0,1,0,.869-4.457,2.373,2.373,0,0,0-.869,4.457Z" transform="translate(-1949.213 -1166.106)" fill="#fa7167"/>
          </g>
          <g id="Group_21178" data-name="Group 21178" transform="translate(38.355 5.296)">
            <path id="Path_30005" data-name="Path 30005" d="M1919.64,1114.577a3.666,3.666,0,1,1-.058-5.184A3.666,3.666,0,0,1,1919.64,1114.577Z" transform="translate(-1913.353 -1108.348)" fill="#fa7167"/>
            <path id="Path_30006" data-name="Path 30006" d="M1921.177,1117.516a2.371,2.371,0,1,0-4.028,1.721A2.354,2.354,0,0,0,1921.177,1117.516Z" transform="translate(-1915.588 -1113.294)" fill="#fa7167"/>
          </g>
          <g id="Group_21179" data-name="Group 21179" transform="translate(48.152 29.292)">
            <path id="Path_30007" data-name="Path 30007" d="M1952.707,1195.564a3.666,3.666,0,1,0,3.587,3.744A3.666,3.666,0,0,0,1952.707,1195.564Z" transform="translate(-1948.963 -1195.563)" fill="#fa7167"/>
            <path id="Path_30008" data-name="Path 30008" d="M1955.04,1203.98a2.37,2.37,0,1,0-4.01-1.761A2.374,2.374,0,0,0,1955.04,1203.98Z" transform="translate(-1950.461 -1198.705)" fill="#fa7167"/>
          </g>
          <g id="Group_21180" data-name="Group 21180" transform="translate(21.584)">
            <path id="Path_30009" data-name="Path 30009" d="M1859.718,1093.045a3.666,3.666,0,1,1-3.376-3.934A3.666,3.666,0,0,1,1859.718,1093.045Z" transform="translate(-1852.396 -1089.1)" fill="#fa7167"/>
            <path id="Path_30010" data-name="Path 30010" d="M1859.414,1101.211a2.367,2.367,0,1,0-.925-.265A2.4,2.4,0,0,0,1859.414,1101.211Z" transform="translate(-1855.896 -1094.448)" fill="#fa7167"/>
          </g>
          <g id="Group_21181" data-name="Group 21181" transform="translate(44.513 12.085)">
            <path id="Path_30011" data-name="Path 30011" d="M1937.1,1133.832a3.666,3.666,0,1,0,5.154.562A3.666,3.666,0,0,0,1937.1,1133.832Z" transform="translate(-1935.734 -1133.024)" fill="#fa7167"/>
            <path id="Path_30012" data-name="Path 30012" d="M1942.039,1143.364a2.37,2.37,0,1,0-3.332-.363A2.374,2.374,0,0,0,1942.039,1143.364Z" transform="translate(-1937.511 -1137.461)" fill="#fa7167"/>
          </g>
          <path id="Path_30013" data-name="Path 30013" d="M1798.477,1126.953l-.321.614,39.1,20.6.324-.612-17.431-9.237,19.551,2.628.092-.686-20.373-2.739,20.1-4.3-.145-.677-19.29,4.128,16.667-10.553-.37-.584-17.368,11,12.634-16.216-.546-.425-12.125,15.563,5.98-18.8-.659-.21-6.23,19.588-.744-20.541-.692.025.714,19.716-7.5-18.246-.64.263,7.818,19.012L1803.242,1121l-.514.464,13.223,14.639Z" transform="translate(-1791.496 -1108.229)" fill="#fa7167"/>
        </g>
        <g id="Group_21183" data-name="Group 21183" transform="translate(0 26.957)">
          <rect id="Rectangle_2837" data-name="Rectangle 2837" width="92.634" height="2.962" transform="matrix(0.466, -0.885, 0.885, 0.466, 0, 81.949)" fill="#fa7167"/>
        </g>
      </g>
      <path id="Path_30014" data-name="Path 30014" d="M1624.718,1265.936s-30-22.27-34.114-31.868,4.366-8.514,4.366-8.514-12.115-17.165-8.9-22.837,9.906,1.572,9.906,1.572-5.62-23.222-.734-24.514c9.1-2.406,16.571,22.586,16.571,22.586s-.67-10.376,5.028-8.978c8.591,2.107,4.046,24.446,4.046,24.446s2.739-3.961,7.45-.193C1636.791,1224.4,1624.718,1265.936,1624.718,1265.936Z" transform="translate(-1571.386 -1154.71)" fill="#71c4ff"/>
      <path id="Path_30015" data-name="Path 30015" d="M1655.2,1218.213a6.807,6.807,0,0,0-8.722-.385s4.545-22.339-4.046-24.446c-5.7-1.4-5.028,8.978-5.028,8.978s-7.468-24.991-16.57-22.586l29.7,86.09C1651.864,1260.489,1663.1,1224.529,1655.2,1218.213Z" transform="translate(-1596.981 -1154.71)" fill="#2f8bcc"/>
      <g id="Group_21185" data-name="Group 21185" transform="translate(0.001 66.712)">
        <path id="Path_30016" data-name="Path 30016" d="M1587.423,1375.314s-30.746-.032-37.092-5.361,1.438-5.744,1.438-5.744-14.694-7.8-14.479-13,5.2-4.153,5.2-4.153-10.156-9.1-8.071-13.508c3.2-6.778,17.729,6.076,17.729,6.076s-1.11-5.155,3.395-6.231c6.794-1.624,13.687,17.692,13.687,17.692s-3.249-8.7,1.418-7.734C1579.016,1345.082,1587.423,1375.314,1587.423,1375.314Z" transform="translate(-1534.132 -1331.573)" fill="#bed1f9"/>
      </g>
      <path id="Path_30017" data-name="Path 30017" d="M1709.6,1275.119s27.29-23.287,30.619-32.669-4.67-7.835-4.67-7.835,10.486-17.066,7.082-22.268a5.846,5.846,0,0,0-8.225-2.124s2.835-18.214-1.893-19.147c-8.806-1.737-14.4,22.494-14.4,22.494s.008-9.913-5.328-8.237c-8.046,2.526-2.368,23.5-2.368,23.5s-2.969-7.842-7.224-3.972C1695.569,1231.81,1709.6,1275.119,1709.6,1275.119Z" transform="translate(-1655.036 -1162.954)" fill="#2f8bcc"/>
      <path id="Path_30018" data-name="Path 30018" d="M1698.362,1223.189c4.932-2.959,7.9.987,7.9.987s-4.51-16.318,3.536-18.844c5.336-1.675,5.327,8.237,5.327,8.237s5.59-24.231,14.4-22.494l-23.035,83.711C1704.9,1269.751,1692.487,1226.714,1698.362,1223.189Z" transform="translate(-1652.039 -1162.954)" fill="#71c4ff"/>
      <g id="Group_21187" data-name="Group 21187" transform="translate(57.316 85.932)">
        <g id="Group_21186" data-name="Group 21186">
          <path id="Path_30019" data-name="Path 30019" d="M1742.45,1424.319s29.978.011,34.148-.473-.437-4.207-.437-4.207,9.328.339,10.75-1.929-2.388-3.163-2.388-3.163,9.29-2.692,8.847-4.667c-.826-3.68-11.086-1.281-11.086-1.281s3.81-1.849,2.262-3.569c-2.336-2.594-12.31,4.458-12.31,4.458s3.744-7.084,1.535-7.981C1769.805,1399.9,1742.45,1424.319,1742.45,1424.319Z" transform="translate(-1742.45 -1401.43)" fill="#bed1f9"/>
        </g>
      </g>
      <path id="Path_30020" data-name="Path 30020" d="M1663.08,1515.988h-49.893a29.859,29.859,0,0,1-10.085-22.566,27.015,27.015,0,0,1,2.884-12.079l64.327.723a28.622,28.622,0,0,1,2.661,12.509A29.683,29.683,0,0,1,1663.08,1515.988Z" transform="translate(-1584.122 -1373.424)" fill="#fa7167"/>
    </g>
  </g>
</svg>
