<svg id="Group_21190" data-name="Group 21190" xmlns="http://www.w3.org/2000/svg" xmlns:xlink="http://www.w3.org/1999/xlink" width="163.352" height="68.971" viewBox="0 0 163.352 68.971">
  <defs>
    <clipPath id="clip-path">
      <path id="Path_71" data-name="Path 71" d="M215.553,76.573V61.511q0-2.763-.968-3.777a4.3,4.3,0,0,0-3.2-1.013,4.738,4.738,0,0,0-2.137.469,4.639,4.639,0,0,0-1.59,1.284,5.656,5.656,0,0,0-.968,1.876,7.836,7.836,0,0,0-.322,2.3V76.573H199.9V43.39h6.46V55.438a4.949,4.949,0,0,1,1.067-1.507,6.859,6.859,0,0,1,1.665-1.209,9.771,9.771,0,0,1,2.086-.791,9.452,9.452,0,0,1,2.384-.3,9.025,9.025,0,0,1,6.136,2.049,7.153,7.153,0,0,1,2.36,5.7V76.573Zm-17.538-8.79a10.205,10.205,0,0,1-1.217,3.852,10.444,10.444,0,0,1-2.46,2.963,11.281,11.281,0,0,1-3.4,1.925,12.1,12.1,0,0,1-4.148.691,12.282,12.282,0,0,1-4.546-.814,9.324,9.324,0,0,1-3.551-2.469,11.46,11.46,0,0,1-2.31-4.1,17.926,17.926,0,0,1-.82-5.7,17.239,17.239,0,0,1,.82-5.63,10.082,10.082,0,0,1,2.31-3.876,9.333,9.333,0,0,1,3.6-2.247,14.122,14.122,0,0,1,4.7-.74,13.932,13.932,0,0,1,4.347.642,10.164,10.164,0,0,1,3.428,1.876,9,9,0,0,1,2.31,2.963,10.329,10.329,0,0,1,.993,3.852h-6.508a4.424,4.424,0,0,0-1.516-2.938,4.668,4.668,0,0,0-3.1-1.062,5.347,5.347,0,0,0-1.938.346,3.79,3.79,0,0,0-1.565,1.16,6.08,6.08,0,0,0-1.067,2.173,11.994,11.994,0,0,0-.4,3.332q0,4,1.44,5.925a4.129,4.129,0,0,0,3.329,1.927,5.124,5.124,0,0,0,3.229-1.038,4.133,4.133,0,0,0,1.541-3.012ZM156.93,66.1a6.906,6.906,0,0,0,1.615,4.394,4.928,4.928,0,0,0,3.849,1.629,5.443,5.443,0,0,0,2.808-.716,3.247,3.247,0,0,0,1.565-2h6.657a10.657,10.657,0,0,1-3.975,5.778,11.313,11.313,0,0,1-6.756,2.023q-12.222,0-12.222-13.233a15.31,15.31,0,0,1,.8-5.085,10.955,10.955,0,0,1,2.31-3.9,9.985,9.985,0,0,1,3.7-2.494,13.571,13.571,0,0,1,5.018-.864q5.662,0,8.571,3.6T173.77,66.1Zm10.184-4.049a6.679,6.679,0,0,0-.472-2.345,4.9,4.9,0,0,0-1.118-1.68,4.428,4.428,0,0,0-1.59-.987,5.385,5.385,0,0,0-1.838-.322,4.6,4.6,0,0,0-3.354,1.409,5.986,5.986,0,0,0-1.614,3.925ZM137.5,76.573V49.513h-9.937V43.784h26.827v5.729H144.41v27.06Zm-10.335,0V73.165a8.305,8.305,0,0,1-7.6,4.048,8.523,8.523,0,0,1-3.354-.641,7.5,7.5,0,0,1-2.608-1.827,8.645,8.645,0,0,1-1.713-2.816,10.168,10.168,0,0,1-.622-3.654v-16h6.458V67.289q0,4.543,4.124,4.543a4.554,4.554,0,0,0,3.752-1.556,6.1,6.1,0,0,0,1.266-3.976V52.278h6.409V76.573Zm-24.94,0-.049-2.963a7.462,7.462,0,0,1-6.807,3.6,10.133,10.133,0,0,1-4.271-.887,9.321,9.321,0,0,1-3.329-2.569,12.4,12.4,0,0,1-2.185-4.1,17.5,17.5,0,0,1-.8-5.481,18,18,0,0,1,.671-5.061,11.926,11.926,0,0,1,1.963-3.976,8.849,8.849,0,0,1,3.153-2.592,9.539,9.539,0,0,1,4.248-.913,8.515,8.515,0,0,1,7.254,3.8V43.39h6.359V76.573Zm-5.365-4.592a4.833,4.833,0,0,0,3.9-1.927,7.733,7.733,0,0,0,1.565-5.036q0-7.9-5.416-7.9-5.563,0-5.564,7.506a8.6,8.6,0,0,0,1.541,5.308A4.754,4.754,0,0,0,96.864,71.981ZM58.709,76.573V43.784H82.953v5.729H65.415v7.01H81.562V62.3H65.415v8.444H83.748v5.827Z" transform="translate(-58.709 -43.39)" fill="none" clip-rule="evenodd"/>
    </clipPath>
    <linearGradient id="linear-gradient" x1="0.353" y1="0.659" x2="0.871" y2="0.097" gradientUnits="objectBoundingBox">
      <stop offset="0" stop-color="#16bef0"/>
      <stop offset="1" stop-color="#54b952"/>
    </linearGradient>
  </defs>
  <path id="Path_70" data-name="Path 70" d="M115.911,51.355H123.2V26.07h6.756V20.5h-20.8v5.57h6.756ZM94.266,35.044c.757-.487,5.555-3.537,5.555-8.089,0-4.952-4.444-6.984-8.844-6.984-7.956,0-9.379,5.171-9.379,7.25,0,3.315,3.024,6.321,3.423,6.719C79.687,36.59,79.51,40.7,79.51,42.514c0,5.3,3.956,9.371,10.755,9.371,2.712,0,5.69-.8,7.468-2.917l1.777,2.386h7.645L102.222,44.9a16.531,16.531,0,0,0,3.732-10.609H99.821a11.862,11.862,0,0,1-1.378,5.924Zm.267,10.122a4.608,4.608,0,0,1-3.911,1.68,4.535,4.535,0,0,1-4.267-4.376,5.808,5.808,0,0,1,2.09-4.376ZM90.888,24.212a2.636,2.636,0,0,1,2.979,2.742c0,1.989-1.512,3.271-3.335,4.73-.4-.4-2.8-2.874-2.8-4.465A2.876,2.876,0,0,1,90.888,24.212ZM58.709,51.355H76.265v-5.57H66V20.5H58.709Z" transform="translate(-58.709 -19.97)" fill="#08558c"/>
  <g id="Group_77" data-name="Group 77" transform="translate(0 35.147)">
    <g id="Group_76" data-name="Group 76" clip-path="url(#clip-path)">
      <rect id="Rectangle_44" data-name="Rectangle 44" width="163.352" height="33.824" transform="translate(0 0)" fill="url(#linear-gradient)"/>
    </g>
  </g>
</svg>
