<svg xmlns="http://www.w3.org/2000/svg" width="18.108" height="14.486" viewBox="0 0 18.108 14.486">
  <path id="Path_16503" data-name="Path 16503" d="M18.3,4H3.811a1.808,1.808,0,0,0-1.8,1.811L2,16.676a1.816,1.816,0,0,0,1.811,1.811H18.3a1.816,1.816,0,0,0,1.811-1.811V5.811A1.816,1.816,0,0,0,18.3,4Zm-.905,12.676H4.716a.908.908,0,0,1-.905-.905V7.622l6.284,3.929a1.793,1.793,0,0,0,1.919,0L18.3,7.622V15.77A.908.908,0,0,1,17.392,16.676Zm-6.338-6.338L3.811,5.811H18.3Z" transform="translate(-2 -4)"/>
</svg>
