<svg xmlns="http://www.w3.org/2000/svg" width="14" height="18.375" viewBox="0 0 14 18.375">
  <path id="Icon_material-lock-outline" data-name="Icon material-lock-outline" d="M13,15.5a1.75,1.75,0,1,0-1.75-1.75A1.755,1.755,0,0,0,13,15.5Zm5.25-7.875h-.875V5.875a4.375,4.375,0,0,0-8.75,0v1.75H7.75A1.755,1.755,0,0,0,6,9.375v8.75a1.755,1.755,0,0,0,1.75,1.75h10.5A1.755,1.755,0,0,0,20,18.125V9.375A1.755,1.755,0,0,0,18.25,7.625Zm-7.962-1.75a2.712,2.712,0,1,1,5.425,0v1.75H10.288Zm7.962,12.25H7.75V9.375h10.5Z" transform="translate(-6 -1.5)"/>
</svg>
