<svg xmlns="http://www.w3.org/2000/svg" width="317.809" height="208.098" viewBox="0 0 317.809 208.098">
  <g id="Group_20263" data-name="Group 20263" transform="translate(-566.559 -402.904)">
    <g id="Background_Complete" data-name="Background Complete" transform="translate(566.559 402.904)">
      <g id="Group_1" data-name="Group 1" transform="translate(241.656 23.302)">
        <path id="Path_1" data-name="Path 1" d="M609.359,126.4l-4.967,24.051L601.2,147.33l-5.441,3.878-4.155-5.159-9.324,6.778L574.316,139.5l-8.887,5.2-3.523-4.859-11.283,6.357-3.4-7.267,7.909-38.306,42.4,8.754Z" transform="translate(-538.942 -100.634)" fill="#ebebeb"/>
        <path id="Path_2" data-name="Path 2" d="M641.5,117.5l11.822,17.005-14.706-3.036Z" transform="translate(-582.901 -108.749)" fill="#dbdbdb"/>
        <path id="Path_3" data-name="Path 3" d="M595.657,195.215,588.373,230.5l-57.11-11.788,7.229-35.007,3.4,7.267,11.284-6.357,3.523,4.859,8.887-5.2,7.963,13.322,9.324-6.778,4.155,5.159,5.44-3.878Z" transform="translate(-531.262 -140.595)" fill="#ebebeb"/>
      </g>
      <g id="Group_3" data-name="Group 3" transform="translate(161.481 0)">
        <path id="Path_4" data-name="Path 4" d="M439.6,129.521l-58.2,3.6-4.624-74.715,43.216-2.674,15.868,13.309Z" transform="translate(-376.774 -55.734)" fill="#ebebeb"/>
        <path id="Path_5" data-name="Path 5" d="M460.045,55.734l15.868,13.309-14.987.928Z" transform="translate(-416.83 -55.734)" fill="#dbdbdb"/>
        <g id="Group_2" data-name="Group 2" transform="translate(19.567 17.893)">
          <path id="Path_6" data-name="Path 6" d="M421.992,122.588l-.225-1.685c-.587-3.493.37-7.4,3.405-11.487,2.736-3.614,4.221-6.244,4.057-9.173-.186-3.32-2.392-5.417-6.5-5.252a11.587,11.587,0,0,0-6.461,2.386l-1.792-4.014a17.094,17.094,0,0,1,9.162-3.125c7.486-.419,11.129,4.013,11.407,8.96.248,4.427-2.047,7.754-4.963,11.64-2.674,3.545-3.555,6.467-3.175,9.776l.16,1.689Zm-.922,9.193a3.855,3.855,0,0,1,3.676-4.319,4.08,4.08,0,1,1-3.676,4.319Z" transform="translate(-414.478 -90.211)" fill="#dbdbdb"/>
        </g>
      </g>
      <g id="Group_4" data-name="Group 4" transform="translate(23.809 17.866)">
        <path id="Path_7" data-name="Path 7" d="M130.691,125.652,124.834,123l-.812,1.794a1.529,1.529,0,0,1-1.335.89,8.883,8.883,0,0,0-.958.094,1.527,1.527,0,0,1-1.479-.612l-1.147-1.6-5.23,3.747,1.146,1.6a1.528,1.528,0,0,1,.1,1.6,8.952,8.952,0,0,0-.4.876,1.527,1.527,0,0,1-1.271.978l-1.96.193.632,6.4,1.966-.2a1.531,1.531,0,0,1,1.435.717c.085.133.173.263.266.392s.187.255.285.377a1.526,1.526,0,0,1,.218,1.582l-.818,1.807,5.857,2.656.816-1.8a1.528,1.528,0,0,1,1.336-.888,9.072,9.072,0,0,0,.953-.092,1.527,1.527,0,0,1,1.478.612l1.147,1.6,5.23-3.746-1.147-1.6a1.529,1.529,0,0,1-.1-1.6,8.887,8.887,0,0,0,.394-.873,1.529,1.529,0,0,1,1.271-.979l1.964-.195-.632-6.4-1.965.194a1.527,1.527,0,0,1-1.43-.716q-.128-.2-.268-.395t-.285-.378a1.531,1.531,0,0,1-.218-1.59Zm-3.322,5.921a5.268,5.268,0,1,1-7.35-1.217A5.264,5.264,0,0,1,127.368,131.573Z" transform="translate(-111.497 -105.955)" fill="#ebebeb"/>
        <path id="Path_8" data-name="Path 8" d="M652.9,291.713l-3.9,2.252.69,1.194a1.069,1.069,0,0,1-.038,1.123,6.214,6.214,0,0,0-.337.584,1.072,1.072,0,0,1-.952.592H646.98v4.507h1.379a1.072,1.072,0,0,1,.952.592,6.209,6.209,0,0,0,.337.584,1.069,1.069,0,0,1,.038,1.123l-.69,1.194,3.9,2.252.691-1.2a1.073,1.073,0,0,1,.994-.525q.165.009.332.008c.11,0,.221,0,.331-.008a1.069,1.069,0,0,1,.99.522l.695,1.2,3.9-2.252-.69-1.2a1.07,1.07,0,0,1,.039-1.123,6.3,6.3,0,0,0,.336-.581,1.071,1.071,0,0,1,.952-.592h1.379v-4.507h-1.379a1.071,1.071,0,0,1-.952-.591,6.17,6.17,0,0,0-.336-.581,1.071,1.071,0,0,1-.039-1.124l.69-1.2-3.9-2.252-.691,1.2a1.069,1.069,0,0,1-.991.523c-.11-.006-.222-.008-.334-.008s-.222,0-.332.008a1.074,1.074,0,0,1-.995-.524Zm2.017,4.308a3.691,3.691,0,1,1-3.693,3.689A3.688,3.688,0,0,1,654.915,296.021Z" transform="translate(-369.078 -187.112)" fill="#ebebeb"/>
        <path id="Path_9" data-name="Path 9" d="M166.55,90.681l-3.579,2.737.838,1.1a1.072,1.072,0,0,1,.107,1.118,6.238,6.238,0,0,0-.259.622,1.07,1.07,0,0,1-.867.71l-1.368.178.582,4.469,1.368-.178a1.071,1.071,0,0,1,1.02.464,6.233,6.233,0,0,0,.409.536,1.07,1.07,0,0,1,.183,1.109l-.53,1.274,4.16,1.729.53-1.279a1.073,1.073,0,0,1,.918-.648q.164-.013.33-.035t.328-.051a1.068,1.068,0,0,1,1.049.389l.844,1.1,3.579-2.737-.84-1.1a1.071,1.071,0,0,1-.106-1.119,6.117,6.117,0,0,0,.258-.62,1.072,1.072,0,0,1,.868-.709l1.368-.178-.582-4.469-1.368.178a1.072,1.072,0,0,1-1.02-.464,6.19,6.19,0,0,0-.408-.532,1.07,1.07,0,0,1-.184-1.109l.53-1.277-4.16-1.729-.531,1.277a1.071,1.071,0,0,1-.915.647c-.11.008-.221.02-.332.035s-.22.031-.328.051a1.073,1.073,0,0,1-1.054-.392Zm2.555,4.012a3.691,3.691,0,1,1-3.185,4.135A3.688,3.688,0,0,1,169.105,94.692Z" transform="translate(-135.512 -90.16)" fill="#ebebeb"/>
      </g>
      <g id="Group_10" data-name="Group 10" transform="translate(0 72.761)">
        <g id="Group_5" data-name="Group 5" transform="translate(11.902)">
          <path id="Path_10" data-name="Path 10" d="M110.706,258.652a141.981,141.981,0,0,0-.207-15.068,191.893,191.893,0,0,0-4.721-30.7c-1.316-5.681-2.937-11.266-4.626-16.845-.051-.168-.32-.121-.273.055,5.223,19.666,9.508,39.962,9.213,60.406-.082,5.722-.745,11.341-1.288,17.026-.015.152.236.213.27.057A85.429,85.429,0,0,0,110.706,258.652Z" transform="translate(-94.48 -195.935)" fill="#ebebeb"/>
          <path id="Path_11" data-name="Path 11" d="M94.953,196.242s-7.912,20.083-6.141,24.8,5.423,5.728,5.423,5.728-4.841,6.912-1.458,13.394,10.9,6.176,11.4,13.526C104.177,253.693,104.6,222.96,94.953,196.242Z" transform="translate(-88.554 -196.083)" fill="#ebebeb"/>
          <path id="Path_12" data-name="Path 12" d="M108.173,244.926a.155.155,0,0,0-.008-.105,183.943,183.943,0,0,0-7.675-40.4c-.012-.039-.076-.026-.065.014q2.351,8.812,4.154,17.72a8.738,8.738,0,0,0-3.777-2.106.022.022,0,0,0-.015.04,10,10,0,0,1,3.9,2.606q.347,1.745.673,3.494c-1.768-1.976-4.221-2.957-6.674-3.889a.029.029,0,0,0-.019.054,16.118,16.118,0,0,1,6.832,4.583q.905,5,1.589,10.032a9.567,9.567,0,0,0-4.719-2.7c-.055-.013-.086.068-.03.084a9.967,9.967,0,0,1,4.785,3.065.132.132,0,0,0,.03.022q.237,1.77.447,3.545a12.184,12.184,0,0,0-3.307-1.994c-.032-.013-.049.037-.018.05a11.374,11.374,0,0,1,3.312,2.192c.014.013.028.011.042.017.132,1.125.263,2.25.377,3.377a16.076,16.076,0,0,0-6.711-4.792c-.052-.02-.078.059-.029.081A17.485,17.485,0,0,1,107.883,245a.147.147,0,0,0,.167.052q.256,2.592.451,5.193c0,.023.041.026.039,0Q108.39,247.587,108.173,244.926Z" transform="translate(-93.41 -200.005)" fill="#fff"/>
          <path id="Path_13" data-name="Path 13" d="M100.315,229.335a9.893,9.893,0,0,0-4.754-1.482c-.039,0-.043.054,0,.06a18.829,18.829,0,0,1,4.7,1.535C100.325,229.477,100.374,229.376,100.315,229.335Z" transform="translate(-91.909 -211.288)" fill="#fff"/>
          <path id="Path_14" data-name="Path 14" d="M103.261,270.548a10.01,10.01,0,0,0-3.568-1.22c-.044-.007-.047.06,0,.067a13.376,13.376,0,0,1,3.53,1.238C103.267,270.657,103.307,270.576,103.261,270.548Z" transform="translate(-93.895 -231.238)" fill="#fff"/>
        </g>
        <g id="Group_6" data-name="Group 6" transform="translate(28.553 24.863)">
          <path id="Path_15" data-name="Path 15" d="M141.013,244.632a53.762,53.762,0,0,0-9.158,8.006,32.882,32.882,0,0,0-6.423,10.892,81.428,81.428,0,0,0-4.784,26.05,63.27,63.27,0,0,0,1.411,14.65.139.139,0,0,0,.273-.051,82.167,82.167,0,0,1,.144-25.609c1.36-8.308,3.494-17.347,8.776-24.1,2.876-3.677,6.461-6.569,10.005-9.558C141.443,244.756,141.2,244.5,141.013,244.632Z" transform="translate(-120.638 -244.204)" fill="#ebebeb"/>
          <path id="Path_16" data-name="Path 16" d="M122.9,283.236a49.227,49.227,0,0,1,6.676-8.533c3.958-3.957,7.292-6.77,7.806-9.387s-3.965-4.545-3.965-4.545,5.478.983,6.977-1.315,2.222-15.613,2.222-15.613-9.965,7.115-14.608,17.088S122.9,283.236,122.9,283.236Z" transform="translate(-121.726 -243.843)" fill="#ebebeb"/>
          <path id="Path_17" data-name="Path 17" d="M139.126,250.373c-4.193,4.118-8.413,8.507-10.882,13.917a53.424,53.424,0,0,0-2.2,5.738s0,.006,0,.009c-.127.394-.256.786-.376,1.183a.148.148,0,0,0-.02.064,112.946,112.946,0,0,0-2.83,12.3c-.005.027.035.04.04.013.43-2.077.9-4.175,1.432-6.267a.147.147,0,0,0,.059-.011,8.718,8.718,0,0,1,2.615-.664c.06-.005.055-.109-.006-.106a9.807,9.807,0,0,0-2.587.472c.483-1.885,1.008-3.766,1.6-5.62a27.814,27.814,0,0,1,5.91-.773c.02,0,.024-.031,0-.032a22.346,22.346,0,0,0-5.811.493c.1-.318.21-.634.316-.951a29.919,29.919,0,0,1,3.933-.666c.024,0,.022-.043,0-.043a19.094,19.094,0,0,0-3.851.468c.542-1.6,1.128-3.185,1.778-4.726a28.632,28.632,0,0,1,1.881-3.653,24.066,24.066,0,0,1,3.19-.569c.031,0,.027-.051,0-.053a8.6,8.6,0,0,0-2.983.295c.524-.847,1.075-1.676,1.664-2.479h0a16.866,16.866,0,0,1,6.786-.525c.039.007.054-.059.015-.069a14.288,14.288,0,0,0-6.5.186c.236-.314.478-.624.722-.933a14.826,14.826,0,0,1,4.175-.656.023.023,0,0,0,0-.046,10.9,10.9,0,0,0-3.893.346c1.848-2.3,3.888-4.451,5.906-6.583C139.3,250.333,139.226,250.276,139.126,250.373Z" transform="translate(-121.684 -246.96)" fill="#fff"/>
          <path id="Path_18" data-name="Path 18" d="M152.143,267.815a9.1,9.1,0,0,0-1.981-.069.072.072,0,0,0,.007.141c.656.019,1.311-.03,1.968.006A.039.039,0,0,0,152.143,267.815Z" transform="translate(-134.812 -255.326)" fill="#fff"/>
          <path id="Path_19" data-name="Path 19" d="M137.354,292.8a8.978,8.978,0,0,0-3.071.617c-.024.009-.01.049.015.044,1.015-.241,2.04-.339,3.065-.509A.077.077,0,0,0,137.354,292.8Z" transform="translate(-127.195 -267.39)" fill="#fff"/>
          <path id="Path_20" data-name="Path 20" d="M134.833,284.194a6.513,6.513,0,0,0-1.3.118.04.04,0,0,0,0,.078,6.541,6.541,0,0,0,1.306-.061A.068.068,0,0,0,134.833,284.194Z" transform="translate(-126.824 -263.251)" fill="#fff"/>
        </g>
        <g id="Group_7" data-name="Group 7" transform="translate(0 39.193)">
          <path id="Path_21" data-name="Path 21" d="M66.407,271.884a45.273,45.273,0,0,1,9.262,4.362,27.677,27.677,0,0,1,7.716,7.331,68.521,68.521,0,0,1,9.893,19.976,53.274,53.274,0,0,1,2.245,12.182.117.117,0,0,1-.234.021,69.177,69.177,0,0,0-6.035-20.691c-3.021-6.409-6.838-13.231-12.672-17.474a56.186,56.186,0,0,0-10.307-5.423C66.088,272.083,66.22,271.819,66.407,271.884Z" transform="translate(-65.891 -271.657)" fill="#ebebeb"/>
          <path id="Path_22" data-name="Path 22" d="M90.681,298.779a41.474,41.474,0,0,0-7.375-5.363c-4.118-2.288-7.466-3.793-8.487-5.792s2.158-4.594,2.158-4.594-4.206,2.062-5.95.548-5.407-12.122-5.407-12.122,9.709,3.454,15.772,10.452S90.681,298.779,90.681,298.779Z" transform="translate(-65.62 -271.456)" fill="#ebebeb"/>
          <path id="Path_23" data-name="Path 23" d="M94.194,298.753c-4.856-9.114-11.335-17.36-20.214-22.8a0,0,0,0,0,0,.006,44.607,44.607,0,0,1,6.5,5.085,10.291,10.291,0,0,0-5.22,1.1.03.03,0,0,0,.026.055,14.3,14.3,0,0,1,5.371-.908.108.108,0,0,0,.061-.023q.473.448.934.909a16.517,16.517,0,0,0-2.789.37.02.02,0,0,0,.008.038,14.251,14.251,0,0,1,2.946-.243,60.986,60.986,0,0,1,4.579,5.2,4.657,4.657,0,0,0-1.95.142.038.038,0,0,0,.014.074,10.43,10.43,0,0,1,2.082-.029c.266.338.535.674.8,1.017a18.834,18.834,0,0,0-5.893.573.023.023,0,0,0,.009.045,23.727,23.727,0,0,1,6.052-.393c.248.328.482.666.725,1a12.779,12.779,0,0,0-3.508.4c-.044.011-.032.08.013.07a13.419,13.419,0,0,1,3.631-.283c1.045,1.439,2.045,2.91,3.006,4.4a3.277,3.277,0,0,0-1.539.092.022.022,0,0,0,.008.043,6.7,6.7,0,0,1,1.666.078q1.3,2.019,2.5,4.073C94.072,298.96,94.258,298.873,94.194,298.753Z" transform="translate(-69.639 -273.618)" fill="#fff"/>
          <path id="Path_24" data-name="Path 24" d="M95.75,305.3a7.532,7.532,0,0,0-2.821.345c-.026.008-.02.047.008.042a21.827,21.827,0,0,1,2.805-.288A.05.05,0,0,0,95.75,305.3Z" transform="translate(-78.749 -287.725)" fill="#fff"/>
          <path id="Path_25" data-name="Path 25" d="M80.827,283.9a4.84,4.84,0,0,0-1.3.076c-.051.008-.035.082.015.077.428-.046.85-.03,1.278-.042A.055.055,0,0,0,80.827,283.9Z" transform="translate(-72.294 -277.433)" fill="#fff"/>
        </g>
        <g id="Group_9" data-name="Group 9" transform="translate(15.668 65.861)">
          <g id="Group_8" data-name="Group 8" transform="translate(0 2.036)">
            <path id="Path_26" data-name="Path 26" d="M117.726,355.524H95.81l3.125-22.891.8-5.869H113.8l.8,5.869Z" transform="translate(-95.81 -326.764)" fill="#dbdbdb"/>
            <path id="Path_27" data-name="Path 27" d="M117.5,332.633H101.831l.8-5.869H116.7Z" transform="translate(-98.706 -326.764)" fill="#c7c7c7"/>
          </g>
          <rect id="Rectangle_1" data-name="Rectangle 1" width="18.092" height="4.971" transform="translate(1.912)" fill="#dbdbdb"/>
        </g>
      </g>
    </g>
    <g id="Floor" transform="translate(568.295 572.321)">
      <line id="Line_1" data-name="Line 1" x2="315.573" transform="translate(0)" fill="none" stroke="#263238" stroke-linecap="round" stroke-linejoin="round" stroke-width="1"/>
    </g>
    <g id="Shadow" transform="translate(578.308 578.39)">
      <g id="Group_14" data-name="Group 14" transform="translate(0 0)">
        <ellipse id="Ellipse_981" data-name="Ellipse 981" cx="148.812" cy="16.306" rx="148.812" ry="16.306" fill="#ebebeb"/>
      </g>
    </g>
    <g id="Character" transform="translate(590.867 418.862)">
      <g id="Group_57" data-name="Group 57" transform="translate(0 0)">
        <g id="Group_30" data-name="Group 30" transform="translate(0 43.853)">
          <g id="Group_21" data-name="Group 21" transform="translate(26.395 9.456)">
            <g id="Group_18" data-name="Group 18" transform="translate(34.062 85.34)">
              <path id="Path_2093" data-name="Path 2093" d="M270.106,388.126c-1.21.41-35.884.531-37.209-.3-.5-.312-.817-5.362-1.021-11.473-.044-1.32-.082-2.683-.112-4.067l-2.812-18.494,23.18-.149,2.188,18.5-.089,4.069s13.3,5.891,14.652,6.959S271.316,387.716,270.106,388.126Z" transform="translate(-228.952 -353.643)" fill="#eb9481"/>
              <path id="Path_2094" data-name="Path 2094" d="M272.712,405.271c-1.21.41-35.884.531-37.209-.3-.612-.383-.947-7.757-1.133-15.54l22.556-.145-.089,4.069s13.3,5.891,14.652,6.959S273.923,404.862,272.712,405.271Z" transform="translate(-231.558 -370.789)" fill="#fff"/>
              <g id="Group_17" data-name="Group 17" transform="translate(2.924 16.516)">
                <path id="Path_2095" data-name="Path 2095" d="M272.816,409.043c-1.21.41-35.884.531-37.209-.3-.5-.312-.817-5.362-1.021-11.473l22.355-.143s13.3,5.891,14.652,6.959S274.026,408.633,272.816,409.043Z" transform="translate(-234.586 -391.076)" fill="#a6a6a6"/>
                <g id="Group_16" data-name="Group 16" transform="translate(2.217)">
                  <g id="Group_15" data-name="Group 15" transform="translate(0 6.621)">
                    <path id="Path_2096" data-name="Path 2096" d="M274.787,417.363c-5.813-.122-29.271-.067-35.026.254-.047,0-.047.035,0,.037,5.759.247,29.215,0,35.026-.2C274.91,417.454,274.909,417.365,274.787,417.363Z" transform="translate(-239.276 -407.402)" fill="#263238"/>
                    <path id="Path_2097" data-name="Path 2097" d="M297.175,408.145a4.67,4.67,0,0,0-3.472,1.432,4.524,4.524,0,0,0-1.288,3.108c0,.034.065.035.07,0a5.4,5.4,0,0,1,4.69-4.466A.037.037,0,0,0,297.175,408.145Z" transform="translate(-264.619 -402.995)" fill="#263238"/>
                    <path id="Path_2098" data-name="Path 2098" d="M276.008,398.226c-2.327-.024-5.021.806-6.46,2.714-.056.074.05.152.119.116a32.169,32.169,0,0,1,6.382-2.544A.146.146,0,0,0,276.008,398.226Z" transform="translate(-253.614 -398.225)" fill="#263238"/>
                    <path id="Path_2099" data-name="Path 2099" d="M279.474,399.563c-2.327-.024-5.021.807-6.46,2.714-.056.074.05.152.119.116a32.152,32.152,0,0,1,6.382-2.545A.146.146,0,0,0,279.474,399.563Z" transform="translate(-255.28 -398.868)" fill="#263238"/>
                    <path id="Path_2100" data-name="Path 2100" d="M282.939,400.9c-2.327-.024-5.021.806-6.46,2.714-.056.074.05.152.119.116a32.17,32.17,0,0,1,6.382-2.545A.146.146,0,0,0,282.939,400.9Z" transform="translate(-256.947 -399.511)" fill="#263238"/>
                    <path id="Path_2101" data-name="Path 2101" d="M286.4,402.237c-2.327-.024-5.021.807-6.46,2.714-.056.074.05.152.119.116a32.129,32.129,0,0,1,6.382-2.544A.146.146,0,0,0,286.4,402.237Z" transform="translate(-258.614 -400.154)" fill="#263238"/>
                    <path id="Path_2102" data-name="Path 2102" d="M240.8,407.259c-2.61.017-2.589,4.073.026,4.057S243.419,407.242,240.8,407.259Z" transform="translate(-238.858 -402.571)" fill="#263238"/>
                  </g>
                  <path id="Path_2103" data-name="Path 2103" d="M281.736,385.872c-1.181-.973-2.661-.013-3.384,1a12.207,12.207,0,0,0-2.094,5.956.062.062,0,0,0,.073.066.284.284,0,0,0,.419.186c1.652-1.152,3.562-2.178,4.811-3.8C282.292,388.335,282.853,386.792,281.736,385.872Zm-2.837,4.955c-.8.586-1.622,1.129-2.4,1.745a36.506,36.506,0,0,1,1.3-3.452,13.128,13.128,0,0,1,.844-1.573c.5-.77,2.779-2.722,3.02-.193C281.8,388.75,279.851,390.128,278.9,390.827Z" transform="translate(-256.849 -385.468)" fill="#263238"/>
                  <path id="Path_2104" data-name="Path 2104" d="M262.808,397.627c2.027.3,4.114-.28,6.1-.6a.283.283,0,0,0,.173-.424.061.061,0,0,0,.007-.1,12.208,12.208,0,0,0-5.638-2.842c-1.226-.231-2.958.1-3.135,1.623C260.151,396.726,261.625,397.449,262.808,397.627Zm-1.41-1.319c-1.581-1.99,1.413-2.161,2.31-1.955a13.093,13.093,0,0,1,1.7.548,36.513,36.513,0,0,1,3.33,1.587c-.987.095-1.957.274-2.939.405C264.627,397.05,262.27,397.405,261.4,396.307Z" transform="translate(-249.175 -389.38)" fill="#263238"/>
                </g>
              </g>
            </g>
            <g id="Group_20" data-name="Group 20">
              <path id="Path_2105" data-name="Path 2105" d="M163.318,189.2s26.919,45.794,27.64,49.009c1.108,4.94,6.979,53.732,6.979,53.732l28.01-.5s-4.827-43.019-9.4-57.191c-3.293-10.208-27.05-44.065-27.05-44.065Z" transform="translate(-163.318 -189.203)" fill="#37474f"/>
              <g id="Group_19" data-name="Group 19" transform="translate(4.499 4.179)">
                <path id="Path_2106" data-name="Path 2106" d="M257.156,377.882c-4.023-.029-18.276-.189-23.63.31-.041,0-.04.072,0,.077,1.843.265,19.611-.147,23.631-.276A.056.056,0,1,0,257.156,377.882Z" transform="translate(-201.575 -284.119)" fill="#263238"/>
                <path id="Path_2107" data-name="Path 2107" d="M172.083,197.279c1.764,2.767,3.625,5.476,5.428,8.218s3.6,5.492,5.377,8.255q5.319,8.283,10.39,16.717a50.981,50.981,0,0,1,4.2,8.163,49.915,49.915,0,0,1,2.363,8.789c.549,3.006.91,6.041,1.252,9.075q.545,4.846,1.082,9.693l2.214,19.833q.136,1.217.261,2.434c.012.119-.2.143-.216.023-.824-6.569-1.509-13.158-2.258-19.736l-1.118-9.824c-.347-3.045-.676-6.093-1.148-9.123a60.326,60.326,0,0,0-1.973-8.818,42.518,42.518,0,0,0-3.872-8.57c-3.246-5.6-6.681-11.1-10.117-16.589-3.466-5.535-6.96-11.056-10.585-16.494-.447-.672-.9-1.339-1.363-2C171.96,197.274,172.049,197.225,172.083,197.279Z" transform="translate(-171.988 -197.255)" fill="#263238"/>
              </g>
            </g>
          </g>
          <g id="Group_29" data-name="Group 29">
            <g id="Group_25" data-name="Group 25" transform="translate(0 87.231)">
              <path id="Path_2108" data-name="Path 2108" d="M147.678,383.815c-1.277-.078-34.25-13.438-35.169-14.7a.461.461,0,0,1-.05-.244c.006-1.134,2.289-5.1,4.2-10.31.12-.333.97-1.878,2.152-3.962,3.247-5.723,8.992-15.529,8.992-15.529l21.552,8.564-10.316,15.443-1.606,3.737s10.115,10.453,10.969,11.949S148.95,383.888,147.678,383.815Z" transform="translate(-112.458 -339.066)" fill="#eb9481"/>
              <path id="Path_2109" data-name="Path 2109" d="M147.678,398.208c-1.277-.078-34.25-13.438-35.169-14.7a.461.461,0,0,1-.05-.244c.006-1.134,2.289-5.1,4.2-10.31.12-.333.97-1.878,2.152-3.962l20.229,8.477-1.606,3.737s10.115,10.453,10.969,11.949S148.95,398.281,147.678,398.208Z" transform="translate(-112.458 -353.459)" fill="#fff"/>
              <g id="Group_24" data-name="Group 24" transform="translate(0 19.492)">
                <path id="Path_2110" data-name="Path 2110" d="M147.676,401.879c-1.276-.074-34.25-13.436-35.167-14.7-.35-.478,1.124-4.982,4.145-10.551l20.777,8.253s10.115,10.45,10.972,11.947S148.951,401.953,147.676,401.879Z" transform="translate(-112.459 -376.625)" fill="#a6a6a6"/>
                <g id="Group_23" data-name="Group 23" transform="translate(2.668 3.828)">
                  <g id="Group_22" data-name="Group 22" transform="translate(0 2.319)">
                    <path id="Path_2111" data-name="Path 2111" d="M150.2,410.485c-5.342-2.294-27.108-11.043-32.563-12.9-.044-.015-.056.015-.014.034,5.246,2.39,27.081,10.962,32.541,12.959C150.283,410.616,150.316,410.534,150.2,410.485Z" transform="translate(-117.6 -392.851)" fill="#263238"/>
                    <path id="Path_2112" data-name="Path 2112" d="M172.951,411.366a4.668,4.668,0,0,0-3.755.024,4.526,4.526,0,0,0-2.36,2.4c-.011.033.047.057.065.026a5.4,5.4,0,0,1,6.024-2.38A.036.036,0,0,0,172.951,411.366Z" transform="translate(-141.283 -399.3)" fill="#263238"/>
                    <path id="Path_2113" data-name="Path 2113" d="M157.667,394.482c-2.148-.9-4.957-1.136-7.006.093-.079.047-.011.159.066.152a32.18,32.18,0,0,1,6.871.036A.146.146,0,0,0,157.667,394.482Z" transform="translate(-133.486 -391)" fill="#263238"/>
                    <path id="Path_2114" data-name="Path 2114" d="M160.378,397.022c-2.148-.9-4.957-1.136-7.007.092-.079.048-.01.16.067.152a32.171,32.171,0,0,1,6.87.036A.146.146,0,0,0,160.378,397.022Z" transform="translate(-134.79 -392.222)" fill="#263238"/>
                    <path id="Path_2115" data-name="Path 2115" d="M163.089,399.561c-2.148-.9-4.957-1.136-7.007.092-.079.048-.01.16.067.153a32.142,32.142,0,0,1,6.87.036A.146.146,0,0,0,163.089,399.561Z" transform="translate(-136.094 -393.444)" fill="#263238"/>
                    <path id="Path_2116" data-name="Path 2116" d="M165.8,402.1c-2.148-.9-4.957-1.136-7.006.093-.079.047-.011.159.067.152a32.176,32.176,0,0,1,6.87.036A.146.146,0,0,0,165.8,402.1Z" transform="translate(-137.398 -394.665)" fill="#263238"/>
                    <path id="Path_2117" data-name="Path 2117" d="M121.747,388.626c-2.426-.964-3.927,2.8-1.5,3.77S124.178,389.591,121.747,388.626Z" transform="translate(-118.28 -388.47)" fill="#263238"/>
                  </g>
                  <path id="Path_2118" data-name="Path 2118" d="M166.007,385.018c-.73-1.345-2.462-1.01-3.513-.339a12.208,12.208,0,0,0-4.175,4.737.061.061,0,0,0,.043.089c-.016.173.115.376.319.33,1.964-.447,4.119-.682,5.886-1.719C165.6,387.509,166.7,386.29,166.007,385.018Zm-4.489,3.529c-.961.243-1.927.438-2.878.717a36.524,36.524,0,0,1,2.5-2.712,13.16,13.16,0,0,1,1.373-1.141c.755-.526,3.6-1.481,2.871.954C164.983,387.708,162.663,388.256,161.519,388.547Z" transform="translate(-137.183 -384.045)" fill="#263238"/>
                  <path id="Path_2119" data-name="Path 2119" d="M145.841,388.022c1.765,1.042,3.919,1.284,5.881,1.738.2.047.335-.156.32-.329a.061.061,0,0,0,.043-.089,12.2,12.2,0,0,0-4.161-4.749c-1.049-.675-2.78-1.014-3.514.328C143.715,386.191,144.81,387.414,145.841,388.022Zm-.811-1.752c-.719-2.438,2.12-1.473,2.874-.946a13.165,13.165,0,0,1,1.369,1.145,36.518,36.518,0,0,1,2.491,2.72c-.95-.282-1.916-.48-2.876-.726C147.744,388.169,145.425,387.615,145.029,386.27Z" transform="translate(-130.391 -384.001)" fill="#263238"/>
                </g>
              </g>
            </g>
            <g id="Group_28" data-name="Group 28" transform="translate(4.117)">
              <path id="Path_2120" data-name="Path 2120" d="M144.514,281.355l-24.125-9.741s29.912-43.98,30.133-47.254c.2-2.9-12.942-28.132-13.46-35.486a21.96,21.96,0,0,1,7.462-17.891l24.887,10.579a21.673,21.673,0,0,1-6.764,6.541s12.763,29.167,12.039,38.135C173.959,235.254,144.514,281.355,144.514,281.355Z" transform="translate(-120.39 -170.983)" fill="#37474f"/>
              <g id="Group_27" data-name="Group 27" transform="translate(4.471 2.132)">
                <path id="Path_2121" data-name="Path 2121" d="M149.731,367.06c-3.489-1.5-2.466-1.119-5.972-2.58-1.715-.715-12.992-5.4-14.708-5.789a.04.04,0,0,0-.029.072c1.5.919,12.857,5.409,14.586,6.091,3.533,1.393,2.534.954,6.082,2.308A.055.055,0,0,0,149.731,367.06Z" transform="translate(-129.006 -263.408)" fill="#263238"/>
                <g id="Group_26" data-name="Group 26" transform="translate(34.251 8.729)">
                  <path id="Path_2122" data-name="Path 2122" d="M202.637,202.939a46.869,46.869,0,0,0-7.58,2.458.08.08,0,0,0,.052.151c2.544-.743,5.131-1.437,7.629-2.314A.156.156,0,0,0,202.637,202.939Z" transform="translate(-195.004 -197.214)" fill="#263238"/>
                  <path id="Path_2123" data-name="Path 2123" d="M203.127,200.854a11.1,11.1,0,0,0-.639,1.333,3.066,3.066,0,0,0-.327,1.118c0,.075.1.093.147.047a3.956,3.956,0,0,0,.625-1.054c.212-.411.433-.818.632-1.234C203.7,200.788,203.278,200.59,203.127,200.854Z" transform="translate(-198.447 -196.154)" fill="#263238"/>
                  <path id="Path_2124" data-name="Path 2124" d="M203.881,194.273c.153-.383.306-.765.467-1.145s.361-.781.5-1.184c.021-.064.122-.021.1.043-.152.384-.251.792-.373,1.187s-.252.79-.383,1.183c-.244.732-.542,1.459-.857,2.166a2.721,2.721,0,0,0,1.2-.208,2.156,2.156,0,0,0,.843-1.013c.219-.429.421-.867.647-1.291a9.146,9.146,0,0,0,.69-1.444c.021-.064.12-.021.1.043a16.672,16.672,0,0,1-1.326,3.069c-.229.38-.415.776-.837.925a3.5,3.5,0,0,1-1.42.095c-.058.016-.133-.021-.113-.092A24.372,24.372,0,0,1,203.881,194.273Z" transform="translate(-198.899 -191.912)" fill="#263238"/>
                </g>
                <path id="Path_2125" data-name="Path 2125" d="M202.476,205.773c.884,1.875,1.662,3.743,2.489,5.612.808,1.826,1.564,3.672,2.3,5.529,1.484,3.751,2.814,7.57,3.98,11.431q.866,2.866,1.589,5.773a42.08,42.08,0,0,1,1.152,5.9,15.588,15.588,0,0,1-.5,5.915,34.274,34.274,0,0,1-2.2,5.515c-.541,1.123-.727.971-.465.4.743-1.607,2.688-6.48,2.547-10.576a30.638,30.638,0,0,0-.92-5.843c-.456-1.961-.971-3.907-1.532-5.839-1.105-3.808-2.418-7.54-3.769-11.266-.757-2.088-1.569-4.154-2.337-6.238-.774-2.1-1.571-3.988-2.43-6.279A.05.05,0,0,1,202.476,205.773Z" transform="translate(-164.3 -189.836)" fill="#263238"/>
                <path id="Path_2126" data-name="Path 2126" d="M167.189,189.048c.432-.16,1.032.1,1.472.179a12.717,12.717,0,0,0,3.406.114,3.65,3.65,0,0,0,1.624-.429,8.153,8.153,0,0,0,2.07-2.2,12.6,12.6,0,0,0,1.615-2.834c.022-.061.11-.019.091.041-.182.578-.317,1.161-.547,1.727a10.948,10.948,0,0,1-.8,1.53,6.57,6.57,0,0,1-2.149,2.437,6.23,6.23,0,0,1-3.407.473,12.962,12.962,0,0,1-1.922-.256c-.457-.1-1.225-.169-1.516-.571A.141.141,0,0,1,167.189,189.048Z" transform="translate(-147.331 -179.304)" fill="#263238"/>
                <path id="Path_2127" data-name="Path 2127" d="M133.645,268.992q5.948-9,11.679-18.145,5.747-9.166,11.3-18.449a25.78,25.78,0,0,0,2.483-4.6,8,8,0,0,0-.294-5.249,88.519,88.519,0,0,0-3.7-9.364c-1.391-3.066-2.889-6.082-4.363-9.109a87.738,87.738,0,0,1-4.126-9.169,15.688,15.688,0,0,1-.649-9.265,27.019,27.019,0,0,1,4.372-8.485c.481-.686.97-1.365,1.453-2.049.037-.052.116.011.077.063a36.177,36.177,0,0,0-5.142,8.759,15.14,15.14,0,0,0-1,4.906,15.851,15.851,0,0,0,.784,5.017,66.114,66.114,0,0,0,3.953,9.107c1.468,3.031,2.975,6.042,4.39,9.1a96.823,96.823,0,0,1,3.85,9.4,13.215,13.215,0,0,1,1,4.453,9.7,9.7,0,0,1-1.664,4.6c-3.608,6.153-7.353,12.229-11.145,18.27q-5.709,9.1-11.629,18.057-.745,1.13-1.494,2.259C133.719,269.2,133.584,269.085,133.645,268.992Z" transform="translate(-131.23 -175.092)" fill="#263238"/>
              </g>
            </g>
          </g>
        </g>
        <g id="Group_56" data-name="Group 56" transform="translate(25.453)">
          <g id="Group_34" data-name="Group 34" transform="translate(27.555 22.075)">
            <path id="Path_2128" data-name="Path 2128" d="M216.939,133.825c2.246,4.931,13.593,11.725,18.908,12.455,3.823.525,15.434.706,19.415.1,4.663-.713,1.1-13.3-1.657-12.98-7.576.886-14.01,1.872-16.033,1.872-2.469,0-15.835-4.29-17.445-4.893C216.187,128.9,215.665,131.029,216.939,133.825Z" transform="translate(-215.426 -129.44)" fill="#eb9481"/>
            <g id="Group_32" data-name="Group 32">
              <g id="Group_31" data-name="Group 31">
                <path id="Path_2129" data-name="Path 2129" d="M216.181,134.709c2.843,4.208,12.3,11.088,12.3,11.088l1.311-2.907,4.342-9.609s-8.682-2.74-14.4-3.96a12.6,12.6,0,0,0-2.044-.291C214.045,128.833,213.729,131.089,216.181,134.709Z" transform="translate(-214.598 -129.018)" fill="#4a769d"/>
              </g>
              <path id="Path_2130" data-name="Path 2130" d="M216.181,134.709c2.843,4.208,12.3,11.088,12.3,11.088l1.311-2.907c-3.525-4.092-8.967-10.294-12.1-13.86C214.045,128.833,213.729,131.089,216.181,134.709Z" transform="translate(-214.598 -129.018)" fill="#263238"/>
              <path id="Path_2131" data-name="Path 2131" d="M238.057,147.911c.72-1.766,3.93-8.892,4.727-10.387.056-.1.134-.1.09.02a105.135,105.135,0,0,1-4.747,10.391C238.108,147.977,238.039,147.956,238.057,147.911Z" transform="translate(-225.881 -133.075)" fill="#263238"/>
            </g>
            <g id="Group_33" data-name="Group 33" transform="translate(36.79 3.295)">
              <path id="Path_2132" data-name="Path 2132" d="M285.487,136.17c4.612-.605,10.316-1.639,15.146.412a2.6,2.6,0,0,1,1.291,1.108c2.181.881,2.42,2.175,2.42,2.175a4.318,4.318,0,0,1,1.843,2.8s2.55,1.062,2.164,2.709c-.427,1.849-3.924,0-6.471.153-5.834.36-14.026,2.5-15.7,2.774Z" transform="translate(-285.487 -135.367)" fill="#eb9481"/>
              <path id="Path_2133" data-name="Path 2133" d="M304.723,147.05a26.269,26.269,0,0,1,10.629,1.089.046.046,0,0,0,.028-.087,19.874,19.874,0,0,0-10.662-1.081C304.637,146.987,304.637,147.053,304.723,147.05Z" transform="translate(-294.709 -140.809)" fill="#263238"/>
              <path id="Path_2134" data-name="Path 2134" d="M303.3,140.544a27.692,27.692,0,0,1,9.554,1.8c.016.005.031-.02.014-.029a17.836,17.836,0,0,0-9.566-1.852C303.2,140.471,303.193,140.542,303.3,140.544Z" transform="translate(-294.019 -137.793)" fill="#263238"/>
              <path id="Path_2135" data-name="Path 2135" d="M302.613,136.948a28.012,28.012,0,0,1,7.493,1.463c.017.005.03-.022.012-.029a16.7,16.7,0,0,0-7.514-1.533C302.5,136.846,302.5,136.942,302.613,136.948Z" transform="translate(-293.684 -136.08)" fill="#263238"/>
              <path id="Path_2136" data-name="Path 2136" d="M295.522,156.636c-.741.348-.564.74.854,1.068,1.434.336,7.309.425,7.1,2.477s-8.516,1.8-10.836,1.069a38.623,38.623,0,0,1-5.816-2.717C288.453,158.257,292.337,157.215,295.522,156.636Z" transform="translate(-286.131 -145.598)" fill="#eb9481"/>
            </g>
          </g>
          <g id="Group_37" data-name="Group 37" transform="translate(0 20.276)">
            <path id="Path_2137" data-name="Path 2137" d="M227.8,152.585c-.036.886-.123,1.789-.248,2.684.012-.032.026-.063.038-.1.173-.467.341-.947.551-1.4.011-.024.053-.018.048.011a7.72,7.72,0,0,1-.449,1.444c-.089.221-.18.441-.276.66-.064.4-.135.795-.216,1.184-.153.742-.854,3.9-1.014,4.433-.034.113-.167.087-.159-.038.038-.581.626-3.869.745-4.614a40.525,40.525,0,0,1,.925-4.284C227.757,152.538,227.8,152.554,227.8,152.585Z" transform="translate(-192.564 -138.54)" fill="#263238"/>
            <g id="Group_36" data-name="Group 36">
              <path id="Path_2138" data-name="Path 2138" d="M191.331,163.189c-1.385.714-3.17,1.82-11.213.236-.5-.1-1.008-.226-1.515-.376-7.543-2.266-16.59-11.136-17.1-11.761,0,0,11.98-19.426,27.306-25.532,1.894-.755,5.03.7,6.766,2.512.62.647,1.965,5.413,1.449,9.276S192.725,162.482,191.331,163.189Z" transform="translate(-161.502 -125.552)" fill="#4a769d"/>
              <g id="Group_35" data-name="Group 35" transform="translate(4.132 2.517)">
                <line id="Line_2" data-name="Line 2" x1="0.337" y2="2.42" transform="translate(24.289 9.298)" fill="none" stroke="#fff" stroke-width="0.5"/>
                <line id="Line_3" data-name="Line 3" x1="0.337" y2="2.42" transform="translate(19.065 22.526)" fill="none" stroke="#fff" stroke-width="0.5"/>
                <line id="Line_4" data-name="Line 4" x1="0.337" y2="2.419" transform="translate(10.184 12.529)" fill="none" stroke="#fff" stroke-width="0.5"/>
                <line id="Line_5" data-name="Line 5" x1="0.337" y2="2.42" transform="translate(27.712 21.855)" fill="none" stroke="#fff" stroke-width="0.5"/>
                <line id="Line_6" data-name="Line 6" x2="2.42" y2="0.337" transform="translate(16.645 10.813)" fill="none" stroke="#fff" stroke-width="0.5"/>
                <line id="Line_7" data-name="Line 7" x2="2.419" y2="0.337" transform="translate(6.566 20.37)" fill="none" stroke="#fff" stroke-width="0.5"/>
                <line id="Line_8" data-name="Line 8" x2="2.42" y2="0.337" transform="translate(18.423 30.714)" fill="none" stroke="#fff" stroke-width="0.5"/>
                <line id="Line_9" data-name="Line 9" x2="2.42" y2="0.337" transform="translate(3.459 26.956)" fill="none" stroke="#fff" stroke-width="0.5"/>
                <line id="Line_10" data-name="Line 10" x2="2.419" y2="0.337" transform="translate(24.55)" fill="none" stroke="#fff" stroke-width="0.5"/>
                <line id="Line_11" data-name="Line 11" x1="1.949" y2="1.473" transform="translate(19.672 3.311)" fill="none" stroke="#fff" stroke-width="0.5"/>
                <line id="Line_12" data-name="Line 12" x1="1.949" y2="1.473" transform="translate(3.69 12.718)" fill="none" stroke="#fff" stroke-width="0.5"/>
                <line id="Line_13" data-name="Line 13" x1="1.949" y2="1.473" transform="translate(23.642 16.967)" fill="none" stroke="#fff" stroke-width="0.5"/>
                <line id="Line_14" data-name="Line 14" x1="1.949" y2="1.473" transform="translate(10.721 25.103)" fill="none" stroke="#fff" stroke-width="0.5"/>
                <line id="Line_15" data-name="Line 15" x1="1.949" y2="1.473" transform="translate(28.594 5.847)" fill="none" stroke="#fff" stroke-width="0.5"/>
                <line id="Line_16" data-name="Line 16" x1="1.473" y1="1.949" transform="translate(28.8 13.33)" fill="none" stroke="#fff" stroke-width="0.5"/>
                <line id="Line_17" data-name="Line 17" x1="1.473" y1="1.949" transform="translate(0 19.825)" fill="none" stroke="#fff" stroke-width="0.5"/>
                <line id="Line_18" data-name="Line 18" x1="1.473" y1="1.949" transform="translate(25.299 27.556)" fill="none" stroke="#fff" stroke-width="0.5"/>
                <line id="Line_19" data-name="Line 19" x1="1.473" y1="1.949" transform="translate(12.62 5.525)" fill="none" stroke="#fff" stroke-width="0.5"/>
                <line id="Line_20" data-name="Line 20" x1="1.473" y1="1.949" transform="translate(12.844 31.956)" fill="none" stroke="#fff" stroke-width="0.5"/>
                <line id="Line_21" data-name="Line 21" x1="1.473" y1="1.949" transform="translate(15 16.364)" fill="none" stroke="#fff" stroke-width="0.5"/>
              </g>
            </g>
          </g>
          <g id="Group_49" data-name="Group 49" transform="translate(27.23)">
            <g id="Group_39" data-name="Group 39" transform="translate(0 13.873)">
              <g id="Group_38" data-name="Group 38">
                <path id="Path_2139" data-name="Path 2139" d="M218,127.5c-1.953-.363-3.794-4.406-4.025-7.125-.015-.186.914-1.667,1.958-3.519.629-1.127,1.3-2.4,1.835-3.6.107-.248.748.578.748.578l1.39,1.063,4.6,3.524a20.963,20.963,0,0,0-2.769,4.3,2.987,2.987,0,0,0-.166.516c-.007.024-.013.054-.025.087C221.275,124.329,219.883,127.853,218,127.5Z" transform="translate(-213.971 -113.214)" fill="#eb9481"/>
              </g>
              <path id="Path_2140" data-name="Path 2140" d="M224.782,123.9c-.007.024-.013.054-.025.087a5.238,5.238,0,0,1-.794-.3c-5.029-2.357-2.811-9.1-2.811-9.1l1.969.974,4.6,3.524a20.962,20.962,0,0,0-2.769,4.3A2.985,2.985,0,0,0,224.782,123.9Z" transform="translate(-217.191 -113.875)" fill="#263238"/>
            </g>
            <g id="Group_48" data-name="Group 48" transform="translate(1.516)">
              <path id="Path_2141" data-name="Path 2141" d="M244.418,95.582a5.258,5.258,0,0,1,2.313,4.053,10.463,10.463,0,0,1-1.258,5.223C245.232,104.949,244.418,95.582,244.418,95.582Z" transform="translate(-230.133 -90.86)" fill="#263238"/>
              <g id="Group_40" data-name="Group 40" transform="translate(1.916 2.49)">
                <path id="Path_2142" data-name="Path 2142" d="M221.548,94.859c-1.382,2.727-1.311,11.314.414,13.527,2.5,3.208,7.319,4.313,10.227,1.142,2.819-3.074,2.53-14.263.536-16.349C229.787,90.107,223.589,90.83,221.548,94.859Z" transform="translate(-220.583 -91.28)" fill="#eb9481"/>
              </g>
              <path id="Path_2143" data-name="Path 2143" d="M222.87,124.012v0" transform="translate(-219.768 -104.534)" fill="none" stroke="#f5a79e" stroke-linecap="round" stroke-linejoin="round"/>
              <g id="Group_45" data-name="Group 45" transform="translate(8.55 9.59)">
                <g id="Group_41" data-name="Group 41" transform="translate(0.39 2.757)">
                  <path id="Path_2144" data-name="Path 2144" d="M236,111.427c-.005-.022-.045.029-.044.052.032.585-.03,1.26-.554,1.467-.017.006-.014.036.006.033C236.048,112.873,236.121,111.975,236,111.427Z" transform="translate(-234.729 -110.827)" fill="#263238"/>
                  <path id="Path_2145" data-name="Path 2145" d="M234.849,110.276c-.942-.049-.973,1.84-.1,1.886S235.639,110.318,234.849,110.276Z" transform="translate(-234.118 -110.275)" fill="#263238"/>
                </g>
                <g id="Group_42" data-name="Group 42" transform="translate(4.814 2.732)">
                  <path id="Path_2146" data-name="Path 2146" d="M242.688,111.385c0-.022.045.029.044.052-.027.585.039,1.26.565,1.462.017.006.014.035-.005.032C242.648,112.831,242.568,111.934,242.688,111.385Z" transform="translate(-242.641 -110.781)" fill="#263238"/>
                  <path id="Path_2147" data-name="Path 2147" d="M243.236,110.227c.942-.057.986,1.833.113,1.885S242.445,110.274,243.236,110.227Z" transform="translate(-242.656 -110.226)" fill="#263238"/>
                </g>
                <path id="Path_2148" data-name="Path 2148" d="M233.9,106.282a7.377,7.377,0,0,0,.736-.246,1.254,1.254,0,0,0,.7-.394.4.4,0,0,0-.057-.485.991.991,0,0,0-1-.118,1.455,1.455,0,0,0-.849.617A.426.426,0,0,0,233.9,106.282Z" transform="translate(-233.366 -104.962)" fill="#263238"/>
                <path id="Path_2149" data-name="Path 2149" d="M243.593,107.938a7.419,7.419,0,0,1-.748-.207,1.253,1.253,0,0,1-.722-.356.4.4,0,0,1,.031-.487.991.991,0,0,1,.989-.17,1.452,1.452,0,0,1,.88.57A.426.426,0,0,1,243.593,107.938Z" transform="translate(-237.545 -105.78)" fill="#263238"/>
                <path id="Path_2150" data-name="Path 2150" d="M233.941,122.108c.138.14.275.331.487.351a1.537,1.537,0,0,0,.632-.137.021.021,0,0,1,.025.031.788.788,0,0,1-.748.306.622.622,0,0,1-.452-.525C233.876,122.1,233.92,122.088,233.941,122.108Z" transform="translate(-233.615 -113.205)" fill="#263238"/>
                <g id="Group_43" data-name="Group 43" transform="translate(1.189 0.746)">
                  <path id="Path_2151" data-name="Path 2151" d="M238.193,112.054s.025.876-.019,1.283a8.547,8.547,0,0,0-2.389.086c-.185.04-.167-.11.047-.209a3.489,3.489,0,0,1,2.031-.269c.041-.109-.063-1.348,0-1.346a3.566,3.566,0,0,1,.9.31c0-1.826-.291-3.637-.263-5.456a.056.056,0,0,1,.109-.015,29.512,29.512,0,0,1,.532,5.864C239.153,112.539,238.348,112.141,238.193,112.054Z" transform="translate(-235.657 -106.399)" fill="#263238"/>
                </g>
                <g id="Group_44" data-name="Group 44" transform="translate(0.728 7.37)">
                  <path id="Path_2152" data-name="Path 2152" d="M236.6,119.166a2.625,2.625,0,0,1-1.09,1.3c-.785.318-1.054-.392-.253-1.02A2.529,2.529,0,0,1,236.6,119.166Z" transform="translate(-234.772 -119.163)" fill="#263238"/>
                  <path id="Path_2153" data-name="Path 2153" d="M235.781,120.715a1.059,1.059,0,0,1-.275.161c-.721.291-1.007-.285-.426-.867C235.475,120.04,235.906,120.185,235.781,120.715Z" transform="translate(-234.77 -119.57)" fill="#ff99ba"/>
                </g>
              </g>
              <g id="Group_46" data-name="Group 46" transform="translate(1.022)">
                <path id="Path_2154" data-name="Path 2154" d="M220.323,99.9c.949.291,2.041-2.562,2.349-3.66.272-.967.586-4.034.632-4.243s4.137,2.714,6.529,2.015,3.99-2.846,4.023-3.848-2.937-3.545-5.507-3.675-6.048,3.136-6.048,3.136a11.919,11.919,0,0,0,1.141-1.527,2.813,2.813,0,0,0-2.006,1.73s.329-1.484.2-1.512-1.416,1.244-1.125,2.208a5.076,5.076,0,0,0-1.631,2.71C218.747,94.649,219.208,99.555,220.323,99.9Z" transform="translate(-218.861 -86.483)" fill="#263238"/>
                <path id="Path_2155" data-name="Path 2155" d="M234.806,97.708a8.016,8.016,0,0,1-2.26.809,5.384,5.384,0,0,1-2.579-.414,8.139,8.139,0,0,1-2.262-1.338c-.6-.493-1.129-1.087-1.768-1.525-.16-.11-.345.12-.247.267a8.6,8.6,0,0,0,4.34,3.195,4.934,4.934,0,0,0,4.783-.975C234.823,97.72,234.818,97.7,234.806,97.708Z" transform="translate(-222.133 -90.681)" fill="#263238"/>
              </g>
              <g id="Group_47" data-name="Group 47" transform="translate(0 10.602)">
                <path id="Path_2156" data-name="Path 2156" d="M220.369,109.47s-1.472-2.99-2.8-2.505-.511,4.616.845,5.373a1.48,1.48,0,0,0,2.081-.485Z" transform="translate(-216.892 -106.911)" fill="#eb9481"/>
                <path id="Path_2157" data-name="Path 2157" d="M218.68,109.283a.02.02,0,0,0-.013.037,3.742,3.742,0,0,1,1.555,2.607.817.817,0,0,0-1.174-.406c-.029.015-.01.06.019.058a.91.91,0,0,1,.942.466,4.388,4.388,0,0,1,.351.874c.033.1.2.074.185-.035l0-.025C220.763,111.578,220.041,109.625,218.68,109.283Z" transform="translate(-217.741 -108.052)" fill="#263238"/>
              </g>
            </g>
          </g>
          <g id="Group_55" data-name="Group 55" transform="translate(21.464 23.025)">
            <g id="Group_52" data-name="Group 52" transform="translate(0.919 1.368)">
              <path id="Path_2158" data-name="Path 2158" d="M204.739,135.6c-1.015,5.879,5.333,25.689,9.42,29.389,6.078,5.5,17.315,9.121,21.387,10.3,1.774.513,6.684-11.975,4.889-12.8-3.846-1.761-15.792-5.488-16.917-6.445s-7.99-10.834-11.042-16.53C208.382,131.87,205.252,132.624,204.739,135.6Z" transform="translate(-204.63 -133.483)" fill="#eb9481"/>
              <g id="Group_51" data-name="Group 51" transform="translate(25.678 27.906)">
                <path id="Path_2159" data-name="Path 2159" d="M261.211,187.255s5.3,1.35,8.723,2.4c1.91.583,5.1,1.876,6.3,2.947,1.805,1.6,8.335,9.452,6.465,11.076-1.692,1.47-6.445-5.987-6.445-5.987s5.462,7.1,3.1,8.5-6.613-7.744-6.613-7.744,5.448,7.421,2.783,8.475c-2.014.8-6.329-7.265-6.329-7.265s4.638,6.411,2.6,7.32c-2.249,1-6.7-6.188-6.7-6.188-5.562,1.438-8.8-.154-10.966-1.56C253.609,198.882,261.211,187.255,261.211,187.255Z" transform="translate(-254.108 -187.255)" fill="#eb9481"/>
                <g id="Group_50" data-name="Group 50" transform="translate(14.137 7.848)">
                  <path id="Path_2160" data-name="Path 2160" d="M293.416,202.385c.672.811,1.357,1.627,1.954,2.495s1.165,1.757,1.678,2.677a17.975,17.975,0,0,1,1.659,3.768,38.752,38.752,0,0,0-3.581-6.289c-.6-.866-1.148-1.762-1.744-2.629C293.367,202.384,293.4,202.365,293.416,202.385Z" transform="translate(-287.136 -202.377)" fill="#263238"/>
                  <path id="Path_2161" data-name="Path 2161" d="M287.309,206.433a22.288,22.288,0,0,1,4.5,6.586c.039.1-.012.088-.068,0-.73-1.125-3.676-5.486-4.456-6.569C287.27,206.434,287.293,206.421,287.309,206.433Z" transform="translate(-284.201 -204.326)" fill="#263238"/>
                  <path id="Path_2162" data-name="Path 2162" d="M281.41,208.959a16.163,16.163,0,0,1,3.332,5.2c.039.094-.036.08-.09-.009-1.075-1.75-1.906-3.13-3.3-5.146C281.333,208.973,281.379,208.928,281.41,208.959Z" transform="translate(-281.349 -205.538)" fill="#263238"/>
                </g>
              </g>
            </g>
            <g id="Group_54" data-name="Group 54">
              <path id="Path_2163" data-name="Path 2163" d="M209.663,134.763c-4.739-6.7-7.57-4.217-6.62,3.057a116.684,116.684,0,0,0,3.273,14.908l11.958-5.792S212.7,139.052,209.663,134.763Z" transform="translate(-202.86 -130.848)" fill="#4a769d"/>
              <g id="Group_53" data-name="Group 53" transform="translate(1.525 0.203)">
                <line id="Line_22" data-name="Line 22" x2="0.418" y2="2.407" transform="translate(8.174 6.347)" fill="none" stroke="#fff" stroke-width="0.5"/>
                <line id="Line_23" data-name="Line 23" y1="0.418" x2="2.407" transform="translate(1.098 10.004)" fill="none" stroke="#fff" stroke-width="0.5"/>
                <line id="Line_24" data-name="Line 24" x1="1.407" y2="1.997" fill="none" stroke="#fff" stroke-width="0.5"/>
                <line id="Line_25" data-name="Line 25" x1="1.407" y2="1.997" transform="translate(10.09 13.552)" fill="none" stroke="#fff" stroke-width="0.5"/>
                <line id="Line_26" data-name="Line 26" x1="1.997" y1="1.407" transform="translate(1.226 16.21)" fill="none" stroke="#fff" stroke-width="0.5"/>
              </g>
              <path id="Path_2164" data-name="Path 2164" d="M219,142.27c.636.876,1.3,1.734,1.952,2.594-.167-.435-.311-.874-.44-1.323a.017.017,0,0,1,.032-.01c.133.345.28.683.407,1.03q.092.25.187.5l.042.106c.511.671,1.02,1.344,1.512,2.029.587.817,1.154,1.648,1.723,2.478.589.858,1.146,1.863,1.767,2.7a6.711,6.711,0,0,1-1.162.58c-.106.059-.179-.044-.065-.078s.985-.573,1-.584c-.569-.837-1.23-1.61-1.826-2.428s-1.188-1.626-1.763-2.454c-1.167-1.679-2.24-3.424-3.4-5.111C218.946,142.27,218.981,142.249,219,142.27Z" transform="translate(-210.604 -136.338)" fill="#263238"/>
              <path id="Path_2165" data-name="Path 2165" d="M203.716,151.344c.182.354.377.7.538,1.068.066.15.132.3.2.451q-.409-1.943-.805-3.889c0-.016.02-.023.024-.008.548,2.1,1.1,4.2,1.61,6.309a61.52,61.52,0,0,1,1.349,6.1,7.155,7.155,0,0,1,1.123-.379,5.334,5.334,0,0,1-1.233.6,63.57,63.57,0,0,1-1.557-6.349c-.13-.581-.251-1.164-.375-1.746-.134-.351-.3-.689-.458-1.03-.169-.361-.305-.738-.453-1.108C203.671,151.34,203.705,151.323,203.716,151.344Z" transform="translate(-203.239 -139.56)" fill="#263238"/>
              <path id="Path_2166" data-name="Path 2166" d="M209.868,164.311c1.661-.937,8.6-4.53,10.155-5.207.108-.047.164.008.059.071a105.1,105.1,0,0,1-10.173,5.2C209.866,164.395,209.826,164.335,209.868,164.311Z" transform="translate(-206.223 -144.432)" fill="#263238"/>
            </g>
          </g>
        </g>
      </g>
    </g>
    <g id="Folder" transform="translate(650.407 455.108)">
      <g id="Group_63" data-name="Group 63" transform="translate(0 0)">
        <g id="Group_60" data-name="Group 60" transform="translate(23.071)">
          <g id="Group_58" data-name="Group 58">
            <path id="Path_2167" data-name="Path 2167" d="M429.759,311.866H271.638L294.5,182.2h158.12Z" transform="translate(-271.638 -168.772)" fill="#27bbee"/>
            <path id="Path_2168" data-name="Path 2168" d="M369.811,156.325H318.062l-2.368,13.429h55.38Z" transform="translate(-292.83 -156.325)" fill="#27bbee"/>
          </g>
          <g id="Group_59" data-name="Group 59" opacity="0.1">
            <path id="Path_2169" data-name="Path 2169" d="M429.759,311.866H271.638L294.5,182.2h158.12Z" transform="translate(-271.638 -168.772)" fill="#004684"/>
            <path id="Path_2170" data-name="Path 2170" d="M369.811,156.325H318.062l-2.368,13.429h55.38Z" transform="translate(-292.83 -156.325)" fill="#004684"/>
          </g>
        </g>
        <g id="Group_61" data-name="Group 61" transform="translate(29.139 0.962)">
          <line id="Line_27" data-name="Line 27" y1="4.516" transform="translate(13.58)" fill="none" stroke="#263238" stroke-width="1"/>
          <line id="Line_28" data-name="Line 28" x1="2.258" y1="3.911" transform="translate(6.723 1.935)" fill="none" stroke="#263238" stroke-width="1"/>
          <line id="Line_29" data-name="Line 29" x1="3.911" y1="2.258" transform="translate(1.753 7.039)" fill="none" stroke="#263238" stroke-width="1"/>
          <line id="Line_30" data-name="Line 30" x1="4.516" transform="translate(0 13.944)" fill="none" stroke="#263238" stroke-width="1"/>
          <line id="Line_31" data-name="Line 31" x1="3.911" y2="2.258" transform="translate(1.935 18.543)" fill="none" stroke="#263238" stroke-width="1"/>
          <line id="Line_32" data-name="Line 32" x1="2.258" y2="3.911" transform="translate(7.039 21.86)" fill="none" stroke="#263238" stroke-width="1"/>
          <line id="Line_33" data-name="Line 33" y2="4.516" transform="translate(13.944 23.008)" fill="none" stroke="#263238" stroke-width="1"/>
          <line id="Line_34" data-name="Line 34" x2="2.258" y2="3.911" transform="translate(18.543 21.678)" fill="none" stroke="#263238" stroke-width="1"/>
          <line id="Line_35" data-name="Line 35" x2="3.911" y2="2.258" transform="translate(21.86 18.227)" fill="none" stroke="#263238" stroke-width="1"/>
          <line id="Line_36" data-name="Line 36" x2="4.516" transform="translate(23.008 13.58)" fill="none" stroke="#263238" stroke-width="1"/>
          <line id="Line_37" data-name="Line 37" y1="2.258" x2="3.911" transform="translate(21.678 6.723)" fill="none" stroke="#263238" stroke-width="1"/>
          <line id="Line_38" data-name="Line 38" y1="3.911" x2="2.258" transform="translate(18.227 1.753)" fill="none" stroke="#263238" stroke-width="1"/>
        </g>
        <path id="Path_2171" data-name="Path 2171" d="M408.143,316.229H249.682l-22.5-124.958H385.645Z" transform="translate(-227.184 -173.135)" fill="#79cdea"/>
        <g id="Group_62" data-name="Group 62" transform="translate(48.324 81.351)">
          <ellipse id="Ellipse_982" data-name="Ellipse 982" cx="6.586" cy="6.586" rx="6.586" ry="6.586" fill="#263238"/>
          <ellipse id="Ellipse_983" data-name="Ellipse 983" cx="6.586" cy="6.586" rx="6.586" ry="6.586" transform="translate(52.066 0)" fill="#263238"/>
          <path id="Path_2172" data-name="Path 2172" d="M382.689,332.518l-.361-.69c-.033-.062-3.436-6.352-10.282-6.352-6.244,0-7.766,5.922-7.828,6.174l-.185.755-1.51-.365.182-.755c.018-.074,1.855-7.365,9.341-7.365,7.8,0,11.507,6.892,11.66,7.186l.362.689Z" transform="translate(-340.609 -318.294)" fill="#263238"/>
        </g>
      </g>
    </g>
    <g id="Fly" transform="translate(820.85 417.454)">
      <g id="Group_69" data-name="Group 69" transform="translate(0 0)">
        <path id="Path_2173" data-name="Path 2173" d="M555.607,215.3c9.2-1.976,17.511-8.848,18.214-17.049,1.379-16.088-18.214-24.975-16.19-43.566,1.931-17.733,20.531-19,27.988-16.547,8.236,2.707,5.414,10.623-2.043,9.6-12.927-1.771-21.053-15.825-14.913-31.767,5.822-15.118,22.677-18.284,22.677-18.284" transform="translate(-555.607 -90.465)" fill="none" stroke="#263238" stroke-width="1" stroke-dasharray="4"/>
        <g id="Group_68" data-name="Group 68" transform="translate(30.683)">
          <path id="Path_2174" data-name="Path 2174" d="M632.273,89.981c-1.324-4.1-10.188-2.628-8.458,2.731S633.6,94.083,632.273,89.981Z" transform="translate(-618.992 -85.625)" fill="#263238"/>
          <g id="Group_65" data-name="Group 65">
            <path id="Path_2175" data-name="Path 2175" d="M614.731,86.472c.066-1.8,2.568-3.183,6.106-2.544a19.837,19.837,0,0,1,6.869,3.021,19.764,19.764,0,0,1-7.073,2.518C617.058,89.844,614.664,88.28,614.731,86.472Z" transform="translate(-614.729 -83.77)" fill="#ebebeb"/>
            <g id="Group_64" data-name="Group 64" transform="translate(1.973 1.11)">
              <path id="Path_2176" data-name="Path 2176" d="M629.535,89.52c-1.837.013-3.671-.049-5.505-.1-1.833-.079-3.667-.151-5.5-.3,1.837-.013,3.671.049,5.505.105C625.871,89.3,627.7,89.372,629.535,89.52Z" transform="translate(-618.532 -87.45)" fill="#263238"/>
              <path id="Path_2177" data-name="Path 2177" d="M621.583,85.908a14.622,14.622,0,0,1,1.518.836,14.4,14.4,0,0,1,1.415,1A14.27,14.27,0,0,1,623,86.908,14.471,14.471,0,0,1,621.583,85.908Z" transform="translate(-620 -85.908)" fill="#263238"/>
              <path id="Path_2178" data-name="Path 2178" d="M628.021,89.57a16.112,16.112,0,0,1-1.473,1.063,15.8,15.8,0,0,1-1.578.9,16.947,16.947,0,0,1,3.051-1.964Z" transform="translate(-621.629 -87.67)" fill="#263238"/>
              <path id="Path_2179" data-name="Path 2179" d="M631.877,87.618a3.868,3.868,0,0,1,1.342,1.082,3.648,3.648,0,0,1-.732-.466A3.7,3.7,0,0,1,631.877,87.618Z" transform="translate(-624.951 -86.731)" fill="#263238"/>
            </g>
          </g>
          <g id="Group_67" data-name="Group 67" transform="translate(2.938 5.404)">
            <path id="Path_2180" data-name="Path 2180" d="M620.825,102.158c1.105,1.42,3.945,1.079,6.441-1.508a19.826,19.826,0,0,0,3.805-6.468,19.766,19.766,0,0,0-7.209,2.095C620.741,98.061,619.714,100.73,620.825,102.158Z" transform="translate(-620.391 -94.182)" fill="#ebebeb"/>
            <g id="Group_66" data-name="Group 66" transform="translate(1.991)">
              <path id="Path_2181" data-name="Path 2181" d="M632.917,94.182c-1.5,1.064-2.949,2.186-4.4,3.3-1.441,1.136-2.886,2.267-4.285,3.458,1.5-1.063,2.949-2.186,4.4-3.3C630.073,96.5,631.518,95.373,632.917,94.182Z" transform="translate(-624.228 -94.182)" fill="#263238"/>
              <path id="Path_2182" data-name="Path 2182" d="M628.579,105.063a14.641,14.641,0,0,0,.743-1.565,14.477,14.477,0,0,0,.563-1.638,14.318,14.318,0,0,0-.743,1.565A14.552,14.552,0,0,0,628.579,105.063Z" transform="translate(-626.321 -97.875)" fill="#263238"/>
              <path id="Path_2183" data-name="Path 2183" d="M630.6,99.619a16.982,16.982,0,0,0-3.623.191,15.835,15.835,0,0,0,1.817,0A16.078,16.078,0,0,0,630.6,99.619Z" transform="translate(-625.548 -96.784)" fill="#263238"/>
              <path id="Path_2184" data-name="Path 2184" d="M635.93,99.084a3.674,3.674,0,0,0,.321-.805,3.616,3.616,0,0,0,.134-.857,3.628,3.628,0,0,0-.322.805A3.675,3.675,0,0,0,635.93,99.084Z" transform="translate(-629.857 -95.741)" fill="#263238"/>
            </g>
          </g>
          <path id="Path_2185" data-name="Path 2185" d="M638.434,89.351a1.555,1.555,0,1,1,1-1.958A1.555,1.555,0,0,1,638.434,89.351Z" transform="translate(-625.154 -84.995)" fill="#455a64"/>
          <path id="Path_2186" data-name="Path 2186" d="M640.276,95.053a1.555,1.555,0,1,1,1-1.958A1.555,1.555,0,0,1,640.276,95.053Z" transform="translate(-626.04 -87.737)" fill="#455a64"/>
        </g>
      </g>
    </g>
    <g id="Speech_Bubble" data-name="Speech Bubble" transform="translate(667.107 409.052)">
      <g id="Group_72" data-name="Group 72" transform="translate(0 0)">
        <g id="Group_70" data-name="Group 70">
          <path id="Path_2187" data-name="Path 2187" d="M288.284,82.082a12.931,12.931,0,0,1-21.611,8.182l-6.471.95,3.238-5.594a12.936,12.936,0,1,1,24.844-3.537Z" transform="translate(-259.766 -67.685)" fill="#fff"/>
          <path id="Path_2188" data-name="Path 2188" d="M287.88,81.976a13.022,13.022,0,0,1-2.61,6.557,11.7,11.7,0,0,1-2.537,2.506,12.75,12.75,0,0,1-3.121,1.737,12.9,12.9,0,0,1-3.482.83,12.745,12.745,0,0,1-1.8.034,11.335,11.335,0,0,1-1.79-.186,13.053,13.053,0,0,1-6.4-3.16l.153.047-6.465.992-.469.072.238-.414,3.219-5.605-.015.222a13.081,13.081,0,0,1,.8-11.529,13.232,13.232,0,0,1,4.051-4.314,13.159,13.159,0,0,1,11.37-1.531,13.214,13.214,0,0,1,4.988,3.059A13.01,13.01,0,0,1,287.88,81.976Zm0,0a12.8,12.8,0,0,0-14.668-14,12.712,12.712,0,0,0-5.342,2.111A13.32,13.32,0,0,0,264,74.31a12.77,12.77,0,0,0-1.642,5.473,12.926,12.926,0,0,0,.911,5.635l.047.116-.062.105L260,91.222l-.231-.341,6.477-.907.089-.012.064.06a12.739,12.739,0,0,0,6.194,3.19,11.075,11.075,0,0,0,1.755.213,12.515,12.515,0,0,0,1.77,0,12.741,12.741,0,0,0,3.455-.761,12.024,12.024,0,0,0,3.12-1.681,11.618,11.618,0,0,0,2.543-2.476A13,13,0,0,0,287.88,81.976Z" transform="translate(-259.362 -67.579)" fill="#263238"/>
        </g>
        <g id="Group_71" data-name="Group 71" transform="translate(9.329 5.719)">
          <path id="Path_2189" data-name="Path 2189" d="M277.338,91.963a1.258,1.258,0,0,1,1.265-1.33,1.331,1.331,0,0,1,0,2.66A1.257,1.257,0,0,1,277.338,91.963Zm.536-3.068-.3-10.3h2.059l-.3,10.3Z" transform="translate(-277.338 -78.599)" fill="#ffc727"/>
          <path id="Path_2190" data-name="Path 2190" d="M286.845,91.963a1.258,1.258,0,0,1,1.266-1.33,1.332,1.332,0,0,1,0,2.66A1.257,1.257,0,0,1,286.845,91.963Zm.536-3.068-.3-10.3h2.059l-.3,10.3Z" transform="translate(-281.911 -78.599)" fill="#ffc727"/>
          <path id="Path_2191" data-name="Path 2191" d="M296.352,91.963a1.258,1.258,0,0,1,1.266-1.33,1.332,1.332,0,0,1,0,2.66A1.257,1.257,0,0,1,296.352,91.963Zm.537-3.068-.3-10.3h2.059l-.3,10.3Z" transform="translate(-286.484 -78.599)" fill="#ffc727"/>
        </g>
      </g>
    </g>
  </g>
</svg>
